<svg height="7560" width="135" version="1.1" xmlns="http://www.w3.org/2000/svg" xmlns:xlink="http://www.w3.org/1999/xlink"><svg x="0" y="0" width="135" height="135" viewBox="0 0 135 135" version="1.1" xmlns="http://www.w3.org/2000/svg" xmlns:xlink="http://www.w3.org/1999/xlink"><title>Egg2</title><g stroke="none" fill="none" fill-rule="evenodd"><path d="M66.776 108c19.207 0 34.776-16.009 34.776-35.756C101.552 52.496 85.982 23 66.776 23 47.57 23 32 52.496 32 72.244 32 91.99 47.57 108 66.776 108z" fill="#FFF"/><path d="M95.242 92.79c-5.345 7.814-13.657 13.328-23.253 14.811a14.655 14.655 0 0 1-.886-5.037c0-7.915 6.243-14.331 13.943-14.331 4.025 0 7.651 1.752 10.196 4.556zM35.18 54.86c2.966-8.704 7.839-17.275 13.893-23.331a14.509 14.509 0 0 1 3.44 9.426c0 7.915-6.242 14.332-13.942 14.332-1.17 0-2.306-.148-3.391-.427zM81.547 28.874c8.256 6.711 14.738 18.219 17.897 29.427-3.044 2.836-7.082 4.563-11.514 4.563-9.47 0-17.147-7.891-17.147-17.626 0-7.415 4.455-13.76 10.764-16.364z" fill="#B9E775"/><ellipse fill="#B9E775" cx="53.795" cy="80.655" rx="12.18" ry="12.519"/></g></svg><svg x="0" y="135" width="135" height="135" viewBox="0 0 135 135" version="1.1" xmlns="http://www.w3.org/2000/svg" xmlns:xlink="http://www.w3.org/1999/xlink"><title>Cracked2</title><g stroke="none" fill="none" fill-rule="evenodd"><path d="M39.144 72.488l14.61-6.485a2.084 2.084 0 0 1 1.835.071L84.935 81.93c.553.298 1.21.332 1.79.09l13.6-5.652c.036.663.053 1.316.053 1.958 0 18.573-14.7 33.63-32.832 33.63s-32.832-15.057-32.832-33.63c0-.298.004-.599.012-.901l-.02.022c.05-2.963.106-5.192.166-6.687.046-1.133.114-2.334.205-3.603.199-18.033 9.96-41.193 25.67-43.682 17.91-2.836 36.768 22.265 39.674 40.61l.039.25-14.545 5.346a3.126 3.126 0 0 1-2.23-.029L54.893 58.238a3.126 3.126 0 0 0-3.128.484l-1.107.903-11.514 12.863z" fill="#FFF"/><path d="M94.42 97.65c-5.046 7.35-12.893 12.536-21.953 13.93a13.737 13.737 0 0 1-.836-4.737c0-7.444 5.894-13.479 13.163-13.479 3.8 0 7.224 1.649 9.626 4.286z" fill="#B9E775"/><ellipse fill="#B9E775" cx="55.291" cy="86.237" rx="11.499" ry="11.775"/><path d="M35.973 57.738c1.485-8.524 4.768-17.205 9.522-23.725a13.615 13.615 0 0 1 4.595 8.249c1.164 7.352-3.712 14.235-10.893 15.372-1.09.173-2.17.203-3.224.104zM75.385 26.751c8.686 5.015 16.423 14.747 21.018 24.693-2.42 3.083-5.932 5.285-10.064 5.94-8.831 1.398-17.15-4.799-18.583-13.842-1.091-6.888 2.13-13.441 7.63-16.791z" fill="#B9E775"/></g></svg><svg x="0" y="270" width="135" height="135" viewBox="0 0 135 135" version="1.1" xmlns="http://www.w3.org/2000/svg" xmlns:xlink="http://www.w3.org/1999/xlink"><title>Burger2</title><g stroke="none" fill="none" fill-rule="evenodd"><path d="M37.668 80h61.664A4.668 4.668 0 0 1 104 84.668v7.664A4.668 4.668 0 0 1 99.332 97H37.668A4.668 4.668 0 0 1 33 92.332v-7.664A4.668 4.668 0 0 1 37.668 80z" fill="#823F1B"/><path d="M41.668 97h53.664a4.668 4.668 0 0 1 4.668 4.668v.664A4.668 4.668 0 0 1 95.332 107H41.668A4.668 4.668 0 0 1 37 102.332v-.664A4.668 4.668 0 0 1 41.668 97z" fill="#F3B96C"/><path d="M72.593 89.704a10.27 10.27 0 0 1-9.186 0L44 80h48l-19.407 9.704z" fill="#FFBC00"/><path d="M35.842 66.545l4.448.743a7.69 7.69 0 0 0 6.826-2.27 14.343 14.343 0 0 1 17.6-2.473 3.343 3.343 0 0 0 4.102-.577 14.343 14.343 0 0 1 17.6-2.473 7.69 7.69 0 0 0 7.187.3l4.07-1.94a5.5 5.5 0 0 1 4.735 9.929l-4.07 1.94a18.69 18.69 0 0 1-17.469-.73 3.343 3.343 0 0 0-4.102.576 14.343 14.343 0 0 1-17.6 2.474 3.343 3.343 0 0 0-4.103.576 18.69 18.69 0 0 1-16.59 5.518l-4.448-.744a5.5 5.5 0 0 1 1.814-10.85z" fill="#90FF00" fill-rule="nonzero"/><path d="M43.138 30.435l39.285-5.522c7.67-1.078 14.763 4.267 15.841 11.938l1.303 9.266a4.668 4.668 0 0 1-3.973 5.273l-57.819 8.125a4.668 4.668 0 0 1-5.272-3.973L31.2 46.276c-1.078-7.671 4.266-14.763 11.937-15.841z" fill="#F3B96C"/><rect fill="#FFCF8F" transform="rotate(-8 50.83 35.958)" x="45.727" y="34.089" width="10.205" height="3.737" rx="1.868"/><path d="M73.09 30.942l6.405-.9a1.868 1.868 0 1 1 .52 3.7l-6.405.9a1.868 1.868 0 1 1-.52-3.7zM61.138 39.226l6.405-.9a1.868 1.868 0 1 1 .52 3.7l-6.405.9a1.868 1.868 0 0 1-.52-3.7z" fill="#FFCF8F"/></g></svg><svg x="0" y="405" width="135" height="135" viewBox="0 0 135 135" version="1.1" xmlns="http://www.w3.org/2000/svg" xmlns:xlink="http://www.w3.org/1999/xlink"><title>paint2</title><g stroke="none" fill="none" fill-rule="evenodd"><path d="M31 48h72" stroke="#EEE" stroke-width="4" stroke-linecap="round" stroke-linejoin="round"/><path d="M95.92 40.402l-.198 58.814a3.391 3.391 0 0 1-3.38 3.38l-50.94.17A3.391 3.391 0 0 1 38 99.365l.198-58.813a3.391 3.391 0 0 1 3.38-3.38L92.518 37a3.391 3.391 0 0 1 3.402 3.402z" fill="#D8D8D8"/><path fill="#C9C9C9" d="M38 40h58v5H38z"/><path d="M37.5 33h58a3.5 3.5 0 0 1 0 7h-58a3.5 3.5 0 0 1 0-7zM37.5 96h58a3.5 3.5 0 0 1 0 7h-58a3.5 3.5 0 1 1 0-7z" fill="#EEE"/><path d="M56 33h21v29.5C77 68.299 72.299 73 66.5 73S56 68.299 56 62.5V33z" fill="#1CB0F6"/><path d="M46 33h15v13.5a7.5 7.5 0 0 1-15 0V33z" fill="#1CB0F6"/><path d="M31 48c0 20.435 16.118 37 36 37s36-16.565 36-37" stroke="#EEE" stroke-width="4" stroke-linecap="round" stroke-linejoin="round"/><path fill="#15A0E2" d="M46 40h31v5H46z"/></g></svg><svg x="0" y="540" width="135" height="135" viewBox="0 0 135 135" version="1.1" xmlns="http://www.w3.org/2000/svg" xmlns:xlink="http://www.w3.org/1999/xlink"><title>Run2</title><g stroke="none" fill="none" fill-rule="evenodd"><path d="M92.205 103.906c1.786 2.669 1.085 6.293-1.564 8.095a5.754 5.754 0 0 1-8.029-1.57L62.209 80.852c-1.785-2.669-1.085-6.293 1.564-8.095a5.754 5.754 0 0 1 8.03 1.57l20.402 29.579z" fill="#71451C"/><path d="M58.09 75.803a.84.84 0 0 1 .182-1.166l8.688-6.363a.824.824 0 0 1 1.157.185l14.605 20.264a.84.84 0 0 1-.184 1.167l-8.687 6.362a.824.824 0 0 1-1.157-.185L58.09 75.803z" fill="#FFF"/><path d="M27.555 78.137a5.864 5.864 0 0 1 0-8.246 5.751 5.751 0 0 1 8.18 0l17.846 18.027a11.503 11.503 0 0 1-16.36 0l-9.666-9.781z" fill="#71451C"/><path d="M74.428 76.524l-20.36 13.735a1.649 1.649 0 0 1-2.3-.451l-6.203-9.27a1.679 1.679 0 0 1 .447-2.319l20.36-13.735a1.649 1.649 0 0 1 2.3.451l6.203 9.27a1.679 1.679 0 0 1-.447 2.319z" fill="#FFF"/><path d="M77.974 56.048a5.885 5.885 0 0 1-7.821 8.795c-8.309-7.389-16.261-9.249-24.687-6.066a5.885 5.885 0 0 1-4.16-11.01c12.735-4.81 25.234-1.887 36.668 8.281z" fill="#71451C" fill-rule="nonzero"/><path d="M40.306 61.13c3.492 2.181 8.1 1.103 10.295-2.408 2.194-3.511 1.142-8.126-2.35-10.308-3.49-2.181-8.1-1.104-10.294 2.408-2.194 3.51-1.142 8.126 2.35 10.307zM99.382 107.036l-7.032 6.61a5.189 5.189 0 0 1-7.375-.26 5.29 5.29 0 0 1 .258-7.434l7.031-6.61a5.189 5.189 0 0 1 7.375.26 5.29 5.29 0 0 1-.257 7.434zM34.62 77.104l-8.868 3.806a5.189 5.189 0 0 1-6.841-2.767 5.29 5.29 0 0 1 2.785-6.898l8.867-3.806a5.189 5.189 0 0 1 6.842 2.766 5.29 5.29 0 0 1-2.785 6.899zM84.36 51.08l-5.99 6.949a4.52 4.52 0 0 1-6.412.452 4.607 4.607 0 0 1-.448-6.464L77.5 45.07a4.52 4.52 0 0 1 6.412-.451 4.607 4.607 0 0 1 .448 6.463z" fill="#71451C"/><path d="M75.798 53.982c6.312 2.7 9.267 10.04 6.61 16.41l-4.79 11.484c-1.064 2.55-3.978 3.75-6.508 2.677a4.947 4.947 0 0 1-.016-.007l-13.683-5.855c-2.52-1.078-3.701-4.01-2.64-6.554l4.803-11.515c2.646-6.343 9.892-9.324 16.185-6.656l.039.016z" fill="#FFF"/><path d="M102.696 56.541a5.885 5.885 0 0 1 5.515 10.397c-14.1 7.48-27.289 6.28-38.194-3.721a5.885 5.885 0 0 1 7.955-8.674c7.1 6.51 14.883 7.218 24.724 1.998z" fill="#71451C" fill-rule="nonzero"/><path d="M103.639 66.98c4.011.927 8.018-1.593 8.95-5.627.93-4.034-1.566-8.056-5.578-8.982-4.011-.926-8.018 1.594-8.95 5.628-.93 4.034 1.566 8.055 5.578 8.982zM93.278 19.754c7.29 1.969 11.617 9.523 9.664 16.872l-2.336 8.788c-1.954 7.35-9.447 11.71-16.738 9.742-7.29-1.97-11.617-9.524-9.663-16.873l2.335-8.788c1.954-7.35 9.448-11.71 16.738-9.741z" fill="#71451C"/><path d="M101.918 44.998a3.567 3.567 0 0 1-3.971-3.12c-.24-1.966 1.15-3.755 3.104-3.997a3.567 3.567 0 0 1 3.972 3.12c.24 1.966-1.15 3.755-3.105 3.997z" fill="#71451C"/></g></svg><svg x="0" y="675" width="135" height="135" viewBox="0 0 135 135" version="1.1" xmlns="http://www.w3.org/2000/svg" xmlns:xlink="http://www.w3.org/1999/xlink"><title>Fish2</title><g stroke="none" fill="none" fill-rule="evenodd"><path d="M81 37.663V51L56 41l17.986-7.914A5 5 0 0 1 81 37.663zM90.816 64.801l11.975-18.674A5 5 0 0 1 112 48.826v37.35a5 5 0 0 1-9.209 2.698L90.816 70.199a5 5 0 0 1 0-5.398z" fill="#3BE2E2"/><path d="M58.924 40H63c14.912 0 27 12.088 27 27S77.912 94 63 94H48.924c-9.389 0-17-7.611-17-17V67c0-14.912 12.088-27 27-27z" fill="#29FFFF"/><path d="M32.172 67.686l14.142 14.142a6 6 0 0 1-8.486 8.486L23.686 76.172a6 6 0 0 1 8.486-8.486zM79.325 96.75c2.9-5.022 1.18-11.444-3.843-14.343-5.022-2.9-17.432 1.193-17.807 1.843-.375.65 2.285 13.444 7.307 16.343 5.022 2.9 11.444 1.18 14.343-3.843z" fill="#3BE2E2"/><path d="M48 55a4 4 0 0 1 4 4v12a4 4 0 1 1-8 0V59a4 4 0 0 1 4-4z" fill="#2BBABA"/></g></svg><svg x="0" y="810" width="135" height="135" viewBox="0 0 135 135" version="1.1" xmlns="http://www.w3.org/2000/svg" xmlns:xlink="http://www.w3.org/1999/xlink"><title>Magnet2</title><g stroke="none" fill="none" fill-rule="evenodd"><path d="M107 85H84V67.5C84 58.387 76.613 51 67.5 51S51 58.387 51 67.5V85H28V66.5C28 44.685 45.685 27 67.5 27S107 44.685 107 66.5V85z" fill="#E73939"/><path d="M28 85h23v18a2 2 0 0 1-2 2H30a2 2 0 0 1-2-2V85zM84 85h23v18a2 2 0 0 1-2 2H86a2 2 0 0 1-2-2V85z" fill="#D8D8D8"/></g></svg><svg x="0" y="945" width="135" height="135" viewBox="0 0 135 135" version="1.1" xmlns="http://www.w3.org/2000/svg" xmlns:xlink="http://www.w3.org/1999/xlink"><title>Gold2</title><g stroke="none" fill="none" fill-rule="evenodd"><path d="M46.763 42.851H73.09c1.521 0 2.876.96 3.38 2.396l6.15 17.53a3.581 3.581 0 0 1-3.38 4.767H40.614a3.581 3.581 0 0 1-3.38-4.768l6.15-17.53a3.581 3.581 0 0 1 3.38-2.395z" fill="#FFBC00"/><path d="M24.202 67.544H50.53c1.521 0 2.876.96 3.38 2.395l6.15 17.53a3.581 3.581 0 0 1-3.38 4.767H18.053a3.581 3.581 0 0 1-3.38-4.767l6.15-17.53a3.581 3.581 0 0 1 3.38-2.395z" fill="#FFBC00"/><path d="M68.422 67.544h26.327c1.52 0 2.876.96 3.38 2.395l6.15 17.53a3.581 3.581 0 0 1-3.38 4.767H62.272a3.581 3.581 0 0 1-3.38-4.767l6.15-17.53a3.581 3.581 0 0 1 3.38-2.395z" fill="#FFBC00"/><path d="M97.883 67.544h14.61c1.505 0 2.85.94 3.365 2.355l6.39 17.53a3.581 3.581 0 0 1-3.365 4.807H80.117a3.572 3.572 0 0 1-2.616-1.136 3.581 3.581 0 0 1-2.618 1.136H36.117a3.581 3.581 0 0 1-3.365-4.808l6.39-17.53a3.581 3.581 0 0 1 3.365-2.354h16.61a3.581 3.581 0 0 1-3.365-4.808l6.39-17.53a3.581 3.581 0 0 1 3.365-2.355h25.986c1.505 0 2.85.941 3.365 2.355l6.39 17.53a3.581 3.581 0 0 1-3.365 4.808z" fill="#FFD300"/><path d="M86.507 67.544H68.493c1.505 0 2.85.94 3.365 2.355L77.5 85.377 83.142 69.9a3.581 3.581 0 0 1 3.365-2.355z" fill="#FFBC00"/><path d="M69.795 67.544h-1.302c.396 0 .78.064 1.14.186L48.332 92.236H36.117a3.581 3.581 0 0 1-3.365-4.808l6.39-17.53a3.581 3.581 0 0 1 3.365-2.354h16.61a3.581 3.581 0 0 1-3.365-4.808l6.39-17.53a3.581 3.581 0 0 1 3.365-2.355H91.26L69.795 67.544z" fill="#FFDE00"/><path d="M93.167 35.061l4.972-4.972a2.985 2.985 0 0 1 4.22 0l4.859 4.859a2.985 2.985 0 0 1 0 4.22l-4.972 4.972a2.985 2.985 0 0 1-4.22 0l-4.86-4.858a2.985 2.985 0 0 1 0-4.221zM30.547 78.223l4.282-4.283a1.99 1.99 0 0 1 2.814 0l4.195 4.195a1.99 1.99 0 0 1 0 2.814l-4.282 4.283a1.99 1.99 0 0 1-2.814 0l-4.195-4.195a1.99 1.99 0 0 1 0-2.814z" fill="#FFF"/></g></svg><svg x="0" y="1080" width="135" height="135" viewBox="0 0 135 135" version="1.1" xmlns="http://www.w3.org/2000/svg" xmlns:xlink="http://www.w3.org/1999/xlink"><title>Ball2</title><g stroke="none" fill="none" fill-rule="evenodd"><circle fill="#FFF" cx="67.5" cy="67.5" r="40.5"/><path d="M102.787 87.392c-4.962 8.782-13.107 15.527-22.869 18.669a4.86 4.86 0 0 1-.427-5.599l4.93-8.23a7.456 7.456 0 0 1 3.978-3.22l9.074-3.112a4.858 4.858 0 0 1 5.314 1.492zM55.594 106.222c-9.802-3.01-18.02-9.64-23.093-18.33a4.858 4.858 0 0 1 5.678-1.992l9.074 3.111a7.456 7.456 0 0 1 3.978 3.221l4.93 8.23a4.86 4.86 0 0 1-.567 5.76zM27.08 70.07c-.053-.85-.08-1.707-.08-2.57 0-9.35 3.168-17.96 8.49-24.815l.608-.055a5.362 5.362 0 0 1 5.828 5.779l-.758 9.237a7.456 7.456 0 0 1-2.376 4.87l-6.812 6.285a5.362 5.362 0 0 1-4.9 1.27zM53.028 29.662A40.405 40.405 0 0 1 67.5 27c5.071 0 9.925.932 14.398 2.634a4.337 4.337 0 0 1-2.896 4.627l-9.116 3.13a7.456 7.456 0 0 1-4.842 0l-9.116-3.13a4.336 4.336 0 0 1-2.9-4.599zM99.47 42.635A40.325 40.325 0 0 1 108 67.5c0 .897-.03 1.787-.087 2.67a5.34 5.34 0 0 1-4.376-1.37l-6.812-6.284a7.456 7.456 0 0 1-2.376-4.87l-.758-9.237a5.362 5.362 0 0 1 5.828-5.779l.052.005zM71.75 54.11l7.572 5.5a7.456 7.456 0 0 1 2.708 8.337l-2.892 8.901A7.456 7.456 0 0 1 72.047 82h-9.36a7.456 7.456 0 0 1-7.09-5.152l-2.893-8.901a7.456 7.456 0 0 1 2.709-8.336l7.572-5.501a7.456 7.456 0 0 1 8.765 0z" fill="#686868"/></g></svg><svg x="0" y="1215" width="135" height="135" viewBox="0 0 135 135" version="1.1" xmlns="http://www.w3.org/2000/svg" xmlns:xlink="http://www.w3.org/1999/xlink"><title>Medical2</title><g stroke="none" fill="none" fill-rule="evenodd"><path d="M56.578 30h22.844A6.578 6.578 0 0 1 86 36.578v13.844A6.578 6.578 0 0 1 79.422 57H56.578A6.578 6.578 0 0 1 50 50.422V36.578A6.578 6.578 0 0 1 56.578 30z" stroke="#FFF" stroke-width="8.524"/><path d="M30.578 42h74.844A6.578 6.578 0 0 1 112 48.578v48.844a6.578 6.578 0 0 1-6.578 6.578H30.578A6.578 6.578 0 0 1 24 97.422V48.578A6.578 6.578 0 0 1 30.578 42z" fill="#FFF"/><path fill="#FCD8D8" d="M31 42h15v62H31zM90 42h15v62H90z"/><path d="M65.193 60h6.614c1.211 0 2.193.982 2.193 2.193V84.92c0 1.211-.982 2.193-2.193 2.193h-6.614A2.193 2.193 0 0 1 63 84.92V62.193c0-1.211.982-2.193 2.193-2.193z" fill="#FF4B4B"/><path d="M82.113 70.193v6.614c0 1.211-.982 2.193-2.193 2.193H57.193A2.193 2.193 0 0 1 55 76.807v-6.614c0-1.211.982-2.193 2.193-2.193H79.92c1.211 0 2.193.982 2.193 2.193z" fill="#FF4B4B"/></g></svg><svg x="0" y="1350" width="135" height="135" viewBox="0 0 135 135" version="1.1" xmlns="http://www.w3.org/2000/svg" xmlns:xlink="http://www.w3.org/1999/xlink"><title>Temple2</title><g stroke="none" fill="none" fill-rule="evenodd"><path fill="#FFF" d="M30.526 49.541h14.21v37.88h-14.21zM59.895 49.541h14.21v37.88h-14.21zM88.316 49.541h14.21v37.88h-14.21z"/><path d="M30.444 84.8h72.165c1 0 1.812.811 1.812 1.812v5.905c0 1.001-.811 1.812-1.812 1.812H30.444c-1.001 0-1.812-.81-1.812-1.812v-5.905c0-1 .81-1.812 1.812-1.812z" fill="#FFF"/><path d="M25.812 91h81.376c1 0 1.812.811 1.812 1.812v6.376c0 1-.811 1.812-1.812 1.812H25.812c-1 0-1.812-.811-1.812-1.812v-6.376c0-1 .811-1.812 1.812-1.812zM27.624 46h79.752A3.624 3.624 0 0 1 111 49.624v2.752A3.624 3.624 0 0 1 107.376 56H27.624A3.624 3.624 0 0 1 24 52.376v-2.752A3.624 3.624 0 0 1 27.624 46z" fill="#FFF"/><path d="M68.292 21.42L111 43.304a1.812 1.812 0 0 1-.826 3.425H23.952a1.812 1.812 0 0 1-.814-3.43l43.514-21.886a1.812 1.812 0 0 1 1.64.007z" fill="#FFF"/><path fill="#7AC70C" opacity=".307" d="M30.526 56.259h14.21v12.388l-14.21 1.906zM59.895 56.259h14.21v9.53l-14.21 1.905zM88.316 56.259h14.21v5.717l-14.21 1.906z"/></g></svg><svg x="0" y="1485" width="135" height="135" viewBox="0 0 135 135" version="1.1" xmlns="http://www.w3.org/2000/svg" xmlns:xlink="http://www.w3.org/1999/xlink"><title>Map2</title><g stroke="none" fill="none" fill-rule="evenodd"><path d="M80.765 104.805l25.149-2.732a1.05 1.05 0 0 0 .936-1.044V37.956a1.05 1.05 0 0 0-1.164-1.043l-25.092 2.756-27.546-7.456-24.005 3.631a1.05 1.05 0 0 0-.893 1.038v63.026a1.05 1.05 0 0 0 1.208 1.038l23.783-3.633 27.624 7.492z" stroke="#FFF" stroke-width="6.299" fill="#82F3FA"/><path d="M53.193 95.804l-23.52 3.605V66.718h20.334c6.783 0 12.281 5.498 12.281 12.28V98.25l-9.095-2.445zM80.934 41.745l24.216-3.061v32.138H84.295c-6.54 0-11.932-5.125-12.265-11.656l-1.01-19.852 9.914 2.43z" stroke="#FFF" stroke-width="3.564" fill="#B8FC56"/><path d="M74.403 40.139c5.296 1.142 8.832 5.913 7.741 11.045l-.055.26a9.656 9.656 0 0 1-11.453 7.437l-12.892-2.74a9.656 9.656 0 0 1-7.438-11.453l.055-.26c1.109-5.216 6.237-8.546 11.515-7.423l12.527 3.134z" stroke="#FFF" stroke-width="3.564" fill="#B8FC56"/><path fill="#000" opacity=".09" d="M52.975 29l27.974 7.473V108l-27.974-7.473z"/><ellipse fill="#FF4B4B" cx="68.038" cy="61.027" rx="12.911" ry="12.811"/><path d="M70.072 81.94a2.31 2.31 0 0 1-4.144 0l-8.287-16.822a2.31 2.31 0 0 1 2.072-3.33h16.574a2.31 2.31 0 0 1 2.072 3.33L70.072 81.94z" fill="#FF4B4B"/><ellipse fill="#FFF" cx="68.038" cy="61.027" rx="6.456" ry="6.405"/></g></svg><svg x="0" y="1620" width="135" height="135" viewBox="0 0 135 135" version="1.1" xmlns="http://www.w3.org/2000/svg" xmlns:xlink="http://www.w3.org/1999/xlink"><title>Hand2</title><g stroke="none" fill="none" fill-rule="evenodd"><path d="M80.685 57.837l3.016.98 8.427-15.77a7.87 7.87 0 0 1 10.994-3.036l.105.063a8.153 8.153 0 0 1 2.79 11.188L94.043 71.187 88.08 89.542a16.234 16.234 0 0 1-4.258 6.77v9.113a5.63 5.63 0 0 1-5.63 5.63H55.485a5.63 5.63 0 0 1-5.63-5.63v-11.49a16.214 16.214 0 0 1-4.743-4.036L28.077 73.435a8.94 8.94 0 0 1 .231-13.072l.145-.13.105-.093a9.247 9.247 0 0 1 13.047.881l3.775 4.323 2.421-7.451 2.174-24.84a8.153 8.153 0 0 1 8.833-7.412l.121.011a7.87 7.87 0 0 1 7.11 8.919l-2.452 17.71 3.051.992 8.145-25.069a8.153 8.153 0 0 1 10.274-5.234l.086.027A7.844 7.844 0 0 1 90.05 33.25l-9.364 24.588z" fill="#A56644"/><path d="M50.324 71.556a2.407 2.407 0 1 1 2.166-4.298c9.308 4.689 13.82 12.168 13.248 22.062a2.407 2.407 0 1 1-4.805-.278c.459-7.94-2.982-13.644-10.609-17.486z" fill="#925C3F" fill-rule="nonzero"/></g></svg><svg x="0" y="1755" width="135" height="135" viewBox="0 0 135 135" version="1.1" xmlns="http://www.w3.org/2000/svg" xmlns:xlink="http://www.w3.org/1999/xlink"><title>Sun2</title><g stroke="none" fill="none" fill-rule="evenodd"><path d="M74.986 109.65l-3.537 5.063a3.799 3.799 0 0 1-6.19.055l-3.63-5.006a18.387 18.387 0 0 0-18.096-7.313l-6.084 1.079a3.799 3.799 0 0 1-4.415-4.339l.973-6.104a18.395 18.395 0 0 0-7.63-17.972l-5.065-3.54a3.799 3.799 0 0 1-.054-6.19l5.002-3.627a18.387 18.387 0 0 0 7.31-18.098l-1.08-6.087a3.799 3.799 0 0 1 4.34-4.416l6.1.974a18.383 18.383 0 0 0 17.967-7.627l3.537-5.064a3.799 3.799 0 0 1 6.19-.054l3.629 5.006a18.387 18.387 0 0 0 18.097 7.313l6.084-1.08a3.799 3.799 0 0 1 4.415 4.34l-.973 6.103a18.395 18.395 0 0 0 7.629 17.972l5.066 3.54a3.799 3.799 0 0 1 .054 6.19l-5.002 3.627a18.387 18.387 0 0 0-7.31 18.098l1.08 6.088a3.799 3.799 0 0 1-4.34 4.415l-6.1-.973a18.383 18.383 0 0 0-17.967 7.626z" fill="#FFBC00"/><ellipse fill="#FFE11A" cx="68.62" cy="68.755" rx="30.546" ry="30.555"/></g></svg><svg x="0" y="1890" width="135" height="135" viewBox="0 0 135 135" version="1.1" xmlns="http://www.w3.org/2000/svg" xmlns:xlink="http://www.w3.org/1999/xlink"><title>Tree2</title><g stroke="none" fill="none" fill-rule="evenodd"><path d="M67.662 55.849a6.24 6.24 0 0 1 5.717 3.738c4.712 10.767 7.334 21.157 7.866 31.17.538 10.124.589 18.673.15 25.646a2.244 2.244 0 0 1-2.239 2.103H63.021a2.244 2.244 0 0 1-2.21-2.635 203.3 203.3 0 0 0 2.847-24.71c.44-8.262.48-18.702.124-31.32a3.882 3.882 0 0 1 3.88-3.992z" fill="#CB852C"/><path d="M68.23 65.535a31.362 31.362 0 0 1-6.948 10.524c-7.834 7.834-19.077 10.877-29.792 8.357-1.079-.254-1.477-1.592-.704-2.366L49.83 63.005a31.533 31.533 0 0 1-3.864-.78C35.266 59.356 27.008 51.14 23.834 40.601c-.32-1.061.64-2.076 1.696-1.793l33.229 8.904c.103.003.208.019.314.047l4.734 1.269 3.466-3.466c.079-.078.163-.145.252-.2L91.848 21.04c.774-.774 2.112-.375 2.366.704 2.52 10.714-.523 21.958-8.357 29.792a31.533 31.533 0 0 1-2.957 2.609l26.016 6.97c1.056.284 1.38 1.642.573 2.401-8.02 7.54-19.278 10.526-29.98 7.659a31.362 31.362 0 0 1-11.279-5.64z" fill="#89E800" fill-rule="nonzero"/></g></svg><svg x="0" y="2025" width="135" height="135" viewBox="0 0 135 135" version="1.1" xmlns="http://www.w3.org/2000/svg" xmlns:xlink="http://www.w3.org/1999/xlink"><title>Book2</title><g stroke="none" fill="none" fill-rule="evenodd"><path d="M26.617 37.375h81.766A3.617 3.617 0 0 1 112 40.992v61.391a3.617 3.617 0 0 1-3.617 3.617H26.617A3.617 3.617 0 0 1 23 102.383V40.992a3.617 3.617 0 0 1 3.617-3.617z" fill="#2A7DE8"/><path d="M60.008 36.925a7.75 7.75 0 0 1 7.75 7.75v54.124H28.658V36.925h31.349z" fill="#DCDCDC"/><path d="M59.493 31.108a7.75 7.75 0 0 1 7.75 7.75V94.6c-1.03-4.584-3.43-6.875-7.203-6.875H28.66v-54.55c0-1.142.925-2.067 2.067-2.067h28.767z" fill="#FFF"/><path d="M74.992 36.925h31.349v61.874H67.243V44.675a7.75 7.75 0 0 1 7.75-7.75z" fill="#DCDCDC"/><path d="M75.995 73.415h23.137c.856 0 1.55.694 1.55 1.55v.073a1.55 1.55 0 0 1-1.55 1.55H75.995a1.55 1.55 0 0 1-1.55-1.55v-.073c0-.856.694-1.55 1.55-1.55zM75.995 79.232H87.3c.856 0 1.55.694 1.55 1.55v.073a1.55 1.55 0 0 1-1.55 1.55H75.995a1.55 1.55 0 0 1-1.55-1.55v-.073c0-.856.694-1.55 1.55-1.55zM75.478 41.685h24.17c.571 0 1.034.462 1.034 1.033v24.904c0 .57-.463 1.033-1.033 1.033h-24.17c-.571 0-1.034-.462-1.034-1.033V42.718c0-.57.463-1.033 1.033-1.033z" fill="#D8D8D8"/><path d="M43.068 29h11.31c.57 0 1.032.463 1.032 1.033v29.655a1.033 1.033 0 0 1-1.489.927l-5.198-2.557-5.199 2.557a1.033 1.033 0 0 1-1.49-.927V30.033c0-.57.463-1.033 1.034-1.033z" fill="#FF4B4B"/><path d="M74.992 31.108h29.282c1.142 0 2.067.925 2.067 2.066v54.55H74.445c-3.773 0-6.173 2.292-7.202 6.876V38.858a7.75 7.75 0 0 1 7.75-7.75z" fill="#FFF"/><path d="M60.72 98.762l4.203-2.665a4.133 4.133 0 0 1 4.427 0l4.202 2.665c.556.352.893.965.893 1.624 0 .584-.473 1.057-1.058 1.057H60.885a1.058 1.058 0 0 1-1.057-1.057c0-.659.337-1.272.893-1.624z" fill="#2A7DE8"/><path d="M74.452 42.213h24.68c.856 0 1.55.694 1.55 1.55V63.14a1.55 1.55 0 0 1-1.55 1.55h-24.68a1.55 1.55 0 0 1-1.55-1.55V43.763c0-.856.694-1.55 1.55-1.55z" fill="#DCDCDC"/><path fill="#FFF" d="M66.214 37.454h2.572v52.568l-1.286 2.6-1.286-2.6z"/></g></svg><svg x="0" y="2160" width="135" height="135" viewBox="0 0 135 135" version="1.1" xmlns="http://www.w3.org/2000/svg" xmlns:xlink="http://www.w3.org/1999/xlink"><title>paint2</title><g stroke="none" fill="none" fill-rule="evenodd"><path d="M31 48h72" stroke="#EEE" stroke-width="4" stroke-linecap="round" stroke-linejoin="round"/><path d="M95.92 40.402l-.198 58.814a3.391 3.391 0 0 1-3.38 3.38l-50.94.17A3.391 3.391 0 0 1 38 99.365l.198-58.813a3.391 3.391 0 0 1 3.38-3.38L92.518 37a3.391 3.391 0 0 1 3.402 3.402z" fill="#D8D8D8"/><path fill="#C9C9C9" d="M38 40h58v5H38z"/><path d="M37.5 33h58a3.5 3.5 0 0 1 0 7h-58a3.5 3.5 0 0 1 0-7zM37.5 96h58a3.5 3.5 0 0 1 0 7h-58a3.5 3.5 0 1 1 0-7z" fill="#EEE"/><path d="M56 33h21v29.5C77 68.299 72.299 73 66.5 73S56 68.299 56 62.5V33z" fill="#1CB0F6"/><path d="M46 33h15v13.5a7.5 7.5 0 0 1-15 0V33z" fill="#1CB0F6"/><path d="M31 48c0 20.435 16.118 37 36 37s36-16.565 36-37" stroke="#EEE" stroke-width="4" stroke-linecap="round" stroke-linejoin="round"/><path fill="#15A0E2" d="M46 40h31v5H46z"/></g></svg><svg x="0" y="2295" width="135" height="135" viewBox="0 0 135 135" version="1.1" xmlns="http://www.w3.org/2000/svg" xmlns:xlink="http://www.w3.org/1999/xlink"><title>Compass2</title><g stroke="none" fill="none" fill-rule="evenodd"><path d="M68 103c-19.33 0-35-15.67-35-35s15.67-35 35-35 35 15.67 35 35-15.67 35-35 35z" fill="#FFF"/><path d="M59.704 57.188a3.708 3.708 0 0 0-2.348 2.348L50.51 80.123a3.708 3.708 0 0 0 4.724 4.677l20.416-7.017a3.708 3.708 0 0 0 2.301-2.301l7.017-20.417a3.708 3.708 0 0 0-4.677-4.723l-20.587 6.846z" fill="#FC4848"/><path d="M77.089 76.876a3.707 3.707 0 0 1-1.44.907L55.235 84.8a3.708 3.708 0 0 1-4.724-4.677l6.846-20.587a3.707 3.707 0 0 1 .919-1.474l18.814 18.814z" fill="#C9C8C8"/><circle stroke="#0083C9" stroke-width="9" cx="68" cy="68" r="39.5"/></g></svg><svg x="0" y="2430" width="135" height="135" viewBox="0 0 135 135" version="1.1" xmlns="http://www.w3.org/2000/svg" xmlns:xlink="http://www.w3.org/1999/xlink"><title>Taxi2</title><g stroke="none" fill="none" fill-rule="evenodd"><path d="M40.356 96.054h5.96a2.938 2.938 0 0 1 2.938 2.938v9.07A2.938 2.938 0 0 1 46.316 111h-5.96a2.938 2.938 0 0 1-2.938-2.938v-9.07a2.938 2.938 0 0 1 2.938-2.938zM88.684 96.054h5.96a2.938 2.938 0 0 1 2.938 2.938v9.07A2.938 2.938 0 0 1 94.644 111h-5.96a2.938 2.938 0 0 1-2.938-2.938v-9.07a2.938 2.938 0 0 1 2.938-2.938z" fill="#454545"/><path d="M58.896 26h17.208A4.896 4.896 0 0 1 81 30.896v5.208A4.896 4.896 0 0 1 76.104 41H58.896A4.896 4.896 0 0 1 54 36.104v-5.208A4.896 4.896 0 0 1 58.896 26z" fill="#FFF"/><path d="M105.386 62h3.228A5.386 5.386 0 0 1 114 67.386v.228A5.386 5.386 0 0 1 108.614 73h-3.228A5.386 5.386 0 0 1 100 67.614v-.228A5.386 5.386 0 0 1 105.386 62zM26.386 62h3.228A5.386 5.386 0 0 1 35 67.386v.228A5.386 5.386 0 0 1 29.614 73h-3.228A5.386 5.386 0 0 1 21 67.614v-.228A5.386 5.386 0 0 1 26.386 62z" fill="#FFCA09"/><path d="M48.726 38.552h37.911a9.302 9.302 0 0 1 9.3 9.09l.714 31.292a9.302 9.302 0 0 1-9.088 9.512l-.212.002H48.012a9.302 9.302 0 0 1-9.302-9.302c0-.106 0-.106.003-.212l.713-31.292a9.302 9.302 0 0 1 9.3-9.09z" stroke="#FFCA09" stroke-width="4.896" fill="#1CB0F6"/><path d="M37.875 73h59.25A5.875 5.875 0 0 1 103 78.875v15.208A3.917 3.917 0 0 1 99.083 98H35.917A3.917 3.917 0 0 1 32 94.083V78.875A5.875 5.875 0 0 1 37.875 73z" fill="#FFCA09"/><path d="M33.264 94h68.472A3.264 3.264 0 0 1 105 97.264v3.472a3.264 3.264 0 0 1-3.264 3.264H33.264A3.264 3.264 0 0 1 30 100.736v-3.472A3.264 3.264 0 0 1 33.264 94z" fill="#A3AFB3"/><path d="M90.917 79h5.166A3.917 3.917 0 0 1 100 82.917v4.166A3.917 3.917 0 0 1 96.083 91h-5.166A3.917 3.917 0 0 1 87 87.083v-4.166A3.917 3.917 0 0 1 90.917 79zM38.917 79h5.166A3.917 3.917 0 0 1 48 82.917v4.166A3.917 3.917 0 0 1 44.083 91h-5.166A3.917 3.917 0 0 1 35 87.083v-4.166A3.917 3.917 0 0 1 38.917 79z" fill="#FFF"/><path d="M59.958 72.552h15.084a4.406 4.406 0 0 1 4.406 4.406v15.084a4.406 4.406 0 0 1-4.406 4.406H59.958a4.406 4.406 0 0 1-4.406-4.406V76.958a4.406 4.406 0 0 1 4.406-4.406z" stroke="#A3AFB3" stroke-width="4.896" fill="#697376"/></g></svg><svg x="0" y="2565" width="135" height="135" viewBox="0 0 135 135" version="1.1" xmlns="http://www.w3.org/2000/svg" xmlns:xlink="http://www.w3.org/1999/xlink"><title>Magnet2</title><g stroke="none" fill="none" fill-rule="evenodd"><path d="M107 85H84V67.5C84 58.387 76.613 51 67.5 51S51 58.387 51 67.5V85H28V66.5C28 44.685 45.685 27 67.5 27S107 44.685 107 66.5V85z" fill="#E73939"/><path d="M28 85h23v18a2 2 0 0 1-2 2H30a2 2 0 0 1-2-2V85zM84 85h23v18a2 2 0 0 1-2 2H86a2 2 0 0 1-2-2V85z" fill="#D8D8D8"/></g></svg><svg x="0" y="2700" width="135" height="135" viewBox="0 0 135 135" version="1.1" xmlns="http://www.w3.org/2000/svg" xmlns:xlink="http://www.w3.org/1999/xlink"><title>Log2</title><g stroke="none" fill="none" fill-rule="evenodd"><path d="M43.497 39.802h48.006C101.719 39.802 110 48.084 110 58.3v28.204C110 96.719 101.719 105 91.503 105H43.497C33.281 105 25 96.719 25 86.503V58.299c0-10.215 8.281-18.497 18.497-18.497z" fill="#895627"/><path d="M68.507 30.488h6.268a2.055 2.055 0 0 1 1.924 2.779l-4.68 12.448a2.055 2.055 0 0 1-1.924 1.332H56.236a2.055 2.055 0 0 1-1.463-3.499l12.27-12.447a2.055 2.055 0 0 1 1.464-.613z" fill="#895627"/><path d="M25 61.535h25.92a3.105 3.105 0 0 1 0 6.21H25v-6.21zM74.756 77.058v6.21h-25.92a3.105 3.105 0 0 1 0-6.21h25.92zM78.902 87.407v6.21H60.24a3.105 3.105 0 0 1 0-6.21h18.663z" fill="#7B4B1F" opacity=".821"/><path d="M41.987 19.895c.902-.968 8.758-1.108 12.342 2.345 3.585 3.452 4.114 11.409 3.32 12.26-.794.851-8.756.992-12.462-2.456-3.707-3.448-4.103-11.181-3.2-12.15z" fill="#3D890B"/><path d="M92.226 42.371c-8.23 0-14.9 6.671-14.9 14.9v30.26c0 8.229 6.67 14.9 14.9 14.9h.305c8.229 0 14.9-6.671 14.9-14.9V57.27c0-8.229-6.671-14.9-14.9-14.9h-.305z" stroke="#B16D2E" stroke-width="5.138" fill="#F3B96C"/><path d="M92.637 59.465a4.405 4.405 0 0 1 4.406 4.406v16.026a4.405 4.405 0 1 1-8.811 0V63.87a4.405 4.405 0 0 1 4.405-4.406z" fill="#FFD092"/></g></svg><svg x="0" y="2835" width="135" height="135" viewBox="0 0 135 135" version="1.1" xmlns="http://www.w3.org/2000/svg" xmlns:xlink="http://www.w3.org/1999/xlink"><title>Pencil2</title><g stroke="none" fill="none" fill-rule="evenodd"><path d="M88.175 31l15.443 15.443-50.482 50.482-21.631 8.92a2.093 2.093 0 0 1-2.732-2.732l8.92-21.63L88.175 31z" fill="#FFD300"/><path d="M53.427 96.635l-.29.29-21.632 8.92a2.093 2.093 0 0 1-2.732-2.732l8.92-21.63.348-.35 12.524 2.828 2.862 12.674z" fill="#FFF2B4"/><path d="M37.368 103.428l-5.863 2.418a2.093 2.093 0 0 1-2.732-2.733l2.417-5.862 6.178 6.177z" fill="#363636"/><path d="M99.344 25.96l9.638 9.637a4.185 4.185 0 0 1 0 5.919L96.516 53.982a4.185 4.185 0 0 1-5.919 0l-9.638-9.638a4.185 4.185 0 0 1 0-5.919L93.425 25.96a4.185 4.185 0 0 1 5.92 0z" fill="#FFAFAF"/><path d="M86.622 32.48l15.425 15.425a2.093 2.093 0 0 1 0 2.96L90.864 62.046a2.093 2.093 0 0 1-2.959 0L72.48 46.622a2.093 2.093 0 0 1 0-2.96L83.662 32.48a2.093 2.093 0 0 1 2.96 0z" fill="#8E8E8E"/><path d="M86.625 34.556l2.924 2.923a2.093 2.093 0 0 1 0 2.96l-8.919 8.919a2.093 2.093 0 0 1-2.96 0l-2.923-2.924a2.093 2.093 0 0 1 0-2.96l8.919-8.918a2.093 2.093 0 0 1 2.96 0z" fill="#FFF" opacity=".364"/></g></svg><svg x="0" y="2970" width="135" height="135" viewBox="0 0 135 135" version="1.1" xmlns="http://www.w3.org/2000/svg" xmlns:xlink="http://www.w3.org/1999/xlink"><title>Chess2</title><g stroke="none" fill="none" fill-rule="evenodd"><g><path fill="#585858" d="M53.528 51.33h29.025L87.58 97.25H48.5z"/><path d="M50.312 91.174h34.376a4.98 4.98 0 0 1 4.979 4.979v.245a4.98 4.98 0 0 1-4.98 4.98H50.313a4.98 4.98 0 0 1-4.979-4.98v-.245a4.98 4.98 0 0 1 4.98-4.98z" fill="#585858"/><path d="M45.473 99.29h44.054A6.473 6.473 0 0 1 96 105.761v.32a6.473 6.473 0 0 1-6.473 6.473H45.473A6.473 6.473 0 0 1 39 106.082v-.32a6.473 6.473 0 0 1 6.473-6.473zM53.48 48.222H82.6a4.98 4.98 0 0 1 4.98 4.979v.246a4.98 4.98 0 0 1-4.98 4.979H53.479a4.98 4.98 0 0 1-4.979-4.98v-.245a4.98 4.98 0 0 1 4.98-4.98z" fill="#585858"/><path d="M47.78 28.592h39.44a4.98 4.98 0 0 1 4.98 4.979v10.92a4.98 4.98 0 0 1-4.98 4.978H47.78a4.98 4.98 0 0 1-4.98-4.979V33.571a4.98 4.98 0 0 1 4.98-4.98z" fill="#585858"/><path d="M46.534 21h7.732A3.734 3.734 0 0 1 58 24.734v11.511a3.734 3.734 0 0 1-3.734 3.735h-7.732a3.734 3.734 0 0 1-3.734-3.735v-11.51A3.734 3.734 0 0 1 46.534 21zM63.634 21h7.732a3.734 3.734 0 0 1 3.734 3.734v11.511a3.734 3.734 0 0 1-3.734 3.735h-7.732a3.734 3.734 0 0 1-3.734-3.735v-11.51A3.734 3.734 0 0 1 63.634 21zM80.734 21h7.732a3.734 3.734 0 0 1 3.734 3.734v11.511a3.734 3.734 0 0 1-3.734 3.735h-7.732A3.734 3.734 0 0 1 77 36.245v-11.51A3.734 3.734 0 0 1 80.734 21z" fill="#585858"/><path d="M47.19 22.898h2.62a2.49 2.49 0 0 1 2.49 2.49v17.796a2.49 2.49 0 0 1-2.49 2.49h-2.62a2.49 2.49 0 0 1-2.49-2.49V25.388a2.49 2.49 0 0 1 2.49-2.49zM58.71 58.96h2.5a2.49 2.49 0 0 1 2.49 2.489v25.388a2.49 2.49 0 0 1-2.49 2.49H56.68a2.49 2.49 0 0 1-2.482-2.689l2.031-25.388a2.49 2.49 0 0 1 2.482-2.29zM48.496 100.714h5.708a3.796 3.796 0 1 1 0 7.592h-5.708a3.796 3.796 0 0 1 0-7.592z" fill="#D8D8D8" opacity=".256"/></g></g></svg><svg x="0" y="3105" width="135" height="135" viewBox="0 0 135 135" version="1.1" xmlns="http://www.w3.org/2000/svg" xmlns:xlink="http://www.w3.org/1999/xlink"><title>question2</title><g stroke="none" fill="#FFF" fill-rule="evenodd"><path d="M67.486 84.965c-4.536 0-8.116-3.103-8.116-8.115 0-3.82.955-7.4 5.251-12.174l6.445-7.28c3.58-3.939 4.774-6.684 4.774-9.668 0-4.654-3.103-7.877-7.877-7.877-4.416 0-6.803 2.268-8.355 5.848-1.67 3.58-4.535 5.252-7.638 5.252-4.535 0-7.638-2.865-7.638-7.28 0-.955.238-2.149.596-3.223 2.745-8.593 11.22-14.919 23.393-14.919 14.203 0 23.99 9.31 23.99 21.603 0 6.086-1.91 10.741-6.446 15.634l-7.4 8.236c-2.028 2.267-2.744 3.938-2.744 5.848 0 5.012-3.82 8.115-8.235 8.115zM57.699 99.526c0-5.37 4.416-9.787 9.787-9.787 5.37 0 9.786 4.416 9.786 9.787 0 5.37-4.416 9.787-9.786 9.787-5.371 0-9.787-4.416-9.787-9.787z"/></g></svg><svg x="0" y="3240" width="135" height="135" viewBox="0 0 135 135" version="1.1" xmlns="http://www.w3.org/2000/svg" xmlns:xlink="http://www.w3.org/1999/xlink"><title>Ghost2</title><g stroke="none" fill="none" fill-rule="evenodd"><path d="M67.5 23c15.216 0 28.051 11.33 29.939 26.43l6.804 54.43a4.787 4.787 0 0 1-8.135 3.978l-.243-.244c-5.18-5.179-13.577-5.179-18.756 0-.08.08-.16.162-.237.244-4.917 5.176-13.1 5.385-18.275.468-.16-.152-.316-.308-.469-.468-5.044-5.31-13.439-5.526-18.75-.48a13.26 13.26 0 0 0-.243.236l-.243.244a4.787 4.787 0 0 1-8.135-3.979l6.804-54.43C39.45 34.331 52.284 23 67.5 23z" fill="#FFF"/><rect fill="#7AC70C" x="70.825" y="40.705" width="8.547" height="18.2" rx="4.273"/><rect fill="#7AC70C" x="56.174" y="40.705" width="8.547" height="18.2" rx="4.273"/><rect fill="#FFF" transform="rotate(37 38.224 72.389)" x="29.224" y="52.389" width="18" height="40" rx="9"/><path d="M83.188 55.416a9 9 0 0 0-1.772 12.604L95.258 86.39a9 9 0 1 0 14.375-10.833L95.793 57.188a9 9 0 0 0-12.604-1.772z" fill="#FFF"/></g></svg><svg x="0" y="3375" width="135" height="135" viewBox="0 0 135 135" version="1.1" xmlns="http://www.w3.org/2000/svg" xmlns:xlink="http://www.w3.org/1999/xlink"><title>Sock2</title><g stroke="none" fill="none" fill-rule="evenodd"><path d="M72.258 74.688l16.974 9.8c7.491 4.325 10.058 13.903 5.733 21.393l-.554.96c-4.325 7.49-13.903 10.056-21.393 5.732L48.486 98.409a15.735 15.735 0 0 1-2.535-1.819C41.17 93.551 38 88.21 38 82.125V24.84A4.84 4.84 0 0 1 42.84 20h24.578a4.84 4.84 0 0 1 4.84 4.84v49.848z" fill="#FFF"/><path d="M90.273 85.143c6.68 4.58 8.81 13.606 4.692 20.738l-.554.96c-4.118 7.132-13 9.8-20.306 6.305l16.168-28.003z" fill="#CFCFCF"/><path fill="#FF5454" d="M38 29.603h34.258v7.831H38zM38 42.323h34.258v7.831H38z"/><path d="M49.053 98.737l-.567-.328a15.735 15.735 0 0 1-2.535-1.819C41.17 93.551 38 88.21 38 82.125v-6.19c7.667 0 13.882 6.36 13.882 14.205 0 3.231-1.054 6.21-2.83 8.597z" fill="#CFCFCF"/></g></svg><svg x="0" y="3510" width="135" height="135" viewBox="0 0 135 135" version="1.1" xmlns="http://www.w3.org/2000/svg" xmlns:xlink="http://www.w3.org/1999/xlink"><title>Hourglass2</title><g stroke="none" fill="none" fill-rule="evenodd"><path d="M59.03 68.02l-6.449-6.743c-5.313-4.332-8.706-10.93-8.706-18.32V33.87h47.25v9.088c0 7.373-3.378 13.958-8.671 18.29l-6.477 6.771 6.477 6.771c5.293 4.333 8.671 10.918 8.671 18.291v9.088h-47.25v-9.088c0-7.39 3.393-13.987 8.706-18.32l6.45-6.742z" fill-opacity=".616" fill="#FFF"/><path d="M49.781 39.804H85.22v3.99c0 9.787-7.933 17.72-17.719 17.72-9.786 0-17.719-7.933-17.719-17.72v-3.99z" fill="#FFF"/><path d="M74.201 61.854l4.648-4.3a6.053 6.053 0 0 0-4.11-10.497H60.267a6.053 6.053 0 0 0-4.11 10.496l4.648 4.3a9.864 9.864 0 0 0 13.396 0zM49.781 106H85.22c0-6.912-5.604-12.516-12.516-12.516H62.297c-6.912 0-12.516 5.604-12.516 12.516z" fill="#FFF"/><path d="M72.309 91.458l6.54 3.65a3.38 3.38 0 0 1-1.646 6.33h-19.4a3.38 3.38 0 0 1-1.647-6.33l6.541-3.65a9.864 9.864 0 0 1 9.612 0z" fill="#FFF"/><ellipse fill="#FFF" cx="65.272" cy="77.696" rx="3.678" ry="3.696"/><rect fill="#BA6436" x="36" y="25" width="63" height="9" rx="2"/><rect fill="#BA6436" x="36" y="102" width="63" height="9" rx="2"/></g></svg><svg x="0" y="3645" width="135" height="135" viewBox="0 0 135 135" version="1.1" xmlns="http://www.w3.org/2000/svg" xmlns:xlink="http://www.w3.org/1999/xlink"><title>Plunger2</title><g stroke="none" fill="none" fill-rule="evenodd"><path d="M68.008 23a5.067 5.067 0 0 1 5.067 5.067v60.83a5.067 5.067 0 0 1-10.133 0v-60.83A5.067 5.067 0 0 1 68.008 23z" fill="#A75E00"/><path d="M37.635 106.772C40.308 92.286 52.83 81.627 67.54 81.627c14.712 0 27.233 10.66 29.905 25.145.35 1.893-1.097 3.641-3.013 3.641H40.648c-1.916 0-3.362-1.748-3.013-3.641z" fill="#FFCBCB" fill-rule="nonzero"/><path d="M62.971 76.48h10.074c1.136 0 2.057.92 2.057 2.056v7.2c0 1.136-.92 2.057-2.057 2.057H62.971a2.056 2.056 0 0 1-2.056-2.057v-7.2c0-1.136.92-2.056 2.056-2.056z" fill="#FFCBCB"/><path d="M58.243 87.977a2.754 2.754 0 1 1 1.29 5.355c-2.463.594-4.296 1.884-5.625 3.95a2.754 2.754 0 0 1-4.632-2.981c2.101-3.265 5.133-5.4 8.967-6.324z" fill="#FFF" fill-rule="nonzero"/></g></svg><svg x="0" y="3780" width="135" height="135" viewBox="0 0 135 135" version="1.1" xmlns="http://www.w3.org/2000/svg" xmlns:xlink="http://www.w3.org/1999/xlink"><title>Baby2</title><g stroke="none" fill="none" fill-rule="evenodd"><ellipse fill="#FFB79E" cx="107.5" cy="71.468" rx="10.5" ry="10"/><ellipse fill="#FFB79E" cx="27.5" cy="71.468" rx="10.5" ry="10"/><path d="M55.678 18.457a4.5 4.5 0 0 1 6.688 6.022c-1.7 1.889-1.636 4.582-.038 6.021 1.597 1.439 4.283 1.22 5.983-.668A4.5 4.5 0 1 1 75 35.855c-4.952 5.499-13.315 6.177-18.694 1.333-5.38-4.844-5.58-13.231-.628-18.73z" fill="#FFD300" fill-rule="nonzero"/><path d="M66.494 35.105c-20.155.352-36.209 16.976-35.857 37.132l.07 4c.352 20.154 16.976 36.208 37.131 35.857 20.156-.352 36.21-16.977 35.858-37.132l-.07-4c-.352-20.155-16.976-36.209-37.132-35.857z" fill="#FFB79E"/><path d="M73.909 48.339a3.419 3.419 0 0 1 3.42 3.418v6.759a3.419 3.419 0 1 1-6.838 0v-6.759a3.419 3.419 0 0 1 3.418-3.418zM60.262 48.71a3.419 3.419 0 0 1 3.42 3.419v6.758a3.419 3.419 0 1 1-6.838 0V52.13a3.419 3.419 0 0 1 3.418-3.419z" fill="#B67661"/><path d="M46.927 68.468h40.96a2.927 2.927 0 0 1 2.926 2.927v6.667c0 12.927-10.48 23.406-23.406 23.406C54.479 101.468 44 90.988 44 78.062v-6.667a2.927 2.927 0 0 1 2.927-2.927z" fill="#AC2424" fill-rule="nonzero"/><path d="M60.742 68.468h13.513c.158.463.243.958.243 1.474v2.884a4.558 4.558 0 0 1-4.558 4.558h-4.884a4.558 4.558 0 0 1-4.558-4.558v-2.884c0-.516.086-1.011.244-1.474z" fill="#FFF" fill-rule="nonzero"/><path d="M83.034 95.487a23.32 23.32 0 0 1-15.627 5.981 23.323 23.323 0 0 1-15.862-6.194c2.695-5.756 8.602-9.89 15.211-9.89 7.42 0 13.581 4.236 16.278 10.103z" fill="#D43434" fill-rule="nonzero"/><circle fill="#FFD300" cx="68" cy="33.468" r="9"/></g></svg><svg x="0" y="3915" width="135" height="135" viewBox="0 0 135 135" version="1.1" xmlns="http://www.w3.org/2000/svg" xmlns:xlink="http://www.w3.org/1999/xlink"><title>Bubbles2</title><g stroke="none" fill="#FFF" fill-rule="evenodd"><path d="M49.033 71.781l-9.642 9.01a3.95 3.95 0 0 1-6.647-2.887v-6.456C27.159 70.138 23 65.126 23 59.141v-15.5C23 36.658 28.66 31 35.64 31h30.214c6.98 0 12.64 5.66 12.64 12.64v15.501c0 6.981-5.66 12.64-12.64 12.64h-16.82z" fill-opacity=".68"/><path d="M82.996 93.425h-21.18c-6.98 0-12.64-5.659-12.64-12.64V61.612c0-6.981 5.66-12.64 12.64-12.64H99.36c6.98 0 12.64 5.659 12.64 12.64v19.173c0 6.375-4.72 11.648-10.856 12.515v7.752a3.95 3.95 0 0 1-6.615 2.916L82.996 93.425z"/></g></svg><svg x="0" y="4050" width="135" height="135" viewBox="0 0 135 135" version="1.1" xmlns="http://www.w3.org/2000/svg" xmlns:xlink="http://www.w3.org/1999/xlink"><title>Suitcase2</title><g stroke="none" fill="none" fill-rule="evenodd"><path d="M57.641 38a3.641 3.641 0 1 1-7.282 0v-4c0-4.888 3.92-8.641 8.841-8.641h15.6c4.92 0 8.841 3.753 8.841 8.641v4a3.641 3.641 0 1 1-7.282 0v-4c0-.793-.591-1.359-1.559-1.359H59.2c-.968 0-1.559.566-1.559 1.359v4z" fill="#995632" fill-rule="nonzero"/><path d="M49.305 36h9.39A3.305 3.305 0 0 1 62 39.305v4.39A3.305 3.305 0 0 1 58.695 47h-9.39A3.305 3.305 0 0 1 46 43.695v-4.39A3.305 3.305 0 0 1 49.305 36zM75.305 36h9.39A3.305 3.305 0 0 1 88 39.305v4.39A3.305 3.305 0 0 1 84.695 47h-9.39A3.305 3.305 0 0 1 72 43.695v-4.39A3.305 3.305 0 0 1 75.305 36z" fill="#FFCA09"/><path d="M28.104 44.037a5.771 5.771 0 0 0-5.772 5.771v42.793a5.771 5.771 0 0 0 5.771 5.772h77.794a5.771 5.771 0 0 0 5.77-5.772V49.808a5.771 5.771 0 0 0-5.77-5.771H28.103z" stroke="#995632" stroke-width="6.664" fill="#A56644"/><path d="M34.212 37h10.576c.67 0 1.212.542 1.212 1.212v66.576c0 .67-.542 1.212-1.212 1.212H34.212c-.67 0-1.212-.542-1.212-1.212V38.212c0-.67.542-1.212 1.212-1.212zM89.212 37h10.576c.67 0 1.212.542 1.212 1.212v66.576c0 .67-.542 1.212-1.212 1.212H89.212c-.67 0-1.212-.542-1.212-1.212V38.212c0-.67.542-1.212 1.212-1.212z" fill="#C17750"/></g></svg><svg x="0" y="4185" width="135" height="135" viewBox="0 0 135 135" version="1.1" xmlns="http://www.w3.org/2000/svg" xmlns:xlink="http://www.w3.org/1999/xlink"><title>Skate2</title><g stroke="none" fill="none" fill-rule="evenodd"><path d="M46.66 53.406l41.945-4.804a11.953 11.953 0 0 1 12.363 7.205 8.932 8.932 0 0 1-4.732 11.712L70.233 78.557l-9.303-1.995-.977 6.358-4.295 1.823c-7.178 3.047-15.466-.302-18.513-7.48l-1.85-4.357c-3.04-7.162.302-15.432 7.463-18.471a14.087 14.087 0 0 1 3.901-1.029z" fill="#FFF"/><path d="M28.982 35.828l17.916-7.605a4.344 4.344 0 0 1 5.697 2.302L66.532 63.36a4.344 4.344 0 0 1-2.301 5.697l-17.917 7.605a4.344 4.344 0 0 1-5.696-2.302L26.68 41.525a4.344 4.344 0 0 1 2.302-5.697z" fill="#FFF"/><path d="M44.176 94.758l62.457-26.512a2.172 2.172 0 0 1 2.848 1.15l1.153 2.717a2.172 2.172 0 0 1-1.151 2.848l-62.457 26.511a2.172 2.172 0 0 1-2.848-1.15l-1.153-2.716a2.172 2.172 0 0 1 1.15-2.848z" fill="#E5E5E5"/><path d="M39.475 80.904l17.818-7.564a8.689 8.689 0 0 1 5.047-.532l7.523 1.458c1.754.34 3.57.148 5.214-.55l27.706-11.76a3.258 3.258 0 0 1 4.272 1.726l.304.716a3.258 3.258 0 0 1-1.726 4.273L75.529 81.449a8.976 8.976 0 0 1-6.913.042l-6.03-2.473 1.447 3.41a3.59 3.59 0 0 1-1.902 4.708l-16.956 7.197a3.258 3.258 0 0 1-4.272-1.726l-3.154-7.431a3.258 3.258 0 0 1 1.726-4.272z" fill="#585858"/><ellipse stroke="#FF68B7" stroke-width="7.181" fill="#FFF" transform="rotate(-23 96.818 80.712)" cx="96.818" cy="80.712" rx="9.211" ry="9.52"/><ellipse stroke="#FF68B7" stroke-width="7.181" fill="#FFF" transform="rotate(-23 55.283 98.342)" cx="55.283" cy="98.342" rx="9.211" ry="9.52"/><path d="M46.187 40.412l8.325-3.534a1.795 1.795 0 0 1 2.354.951l1.448 3.41a1.795 1.795 0 0 1-.951 2.354l-8.325 3.534a1.795 1.795 0 0 1-2.354-.951l-1.448-3.41a1.795 1.795 0 0 1 .951-2.354zM68.043 57.424l-.63-7.211a1.795 1.795 0 0 1 1.631-1.945l3.69-.323a1.795 1.795 0 0 1 1.945 1.632l.631 7.211a1.795 1.795 0 0 1-1.632 1.945l-3.69.323a1.795 1.795 0 0 1-1.945-1.632zM52.79 54.464l5.443-7.222a1.795 1.795 0 0 1 2.514-.354l2.958 2.23c.792.596.95 1.722.354 2.514l-5.443 7.223a1.795 1.795 0 0 1-2.514.353l-2.958-2.23a1.795 1.795 0 0 1-.354-2.514z" fill="#FF68B7"/></g></svg><svg x="0" y="4320" width="135" height="135" viewBox="0 0 135 135" version="1.1" xmlns="http://www.w3.org/2000/svg" xmlns:xlink="http://www.w3.org/1999/xlink"><title>Heart2</title><g stroke="none" fill="none" fill-rule="evenodd"><path d="M30.972 76.484C24.332 71.844 20 64.22 20 55.603 20 41.463 31.662 30 46.048 30c8.898 0 16.753 4.384 21.452 11.075C72.2 34.385 80.054 30 88.952 30 103.338 30 115 41.463 115 55.603c0 8.024-3.756 15.187-9.635 19.881l-30.589 27.914a9.977 9.977 0 0 1-13.33.096l-30.474-27.01z" fill="#FFC5D2"/><rect fill="#C66277" opacity=".75" x="55.625" y="49.813" width="8.313" height="19" rx="4.156"/><rect fill="#C66277" opacity=".75" x="73.438" y="49.813" width="8.313" height="19" rx="4.156"/><path d="M75.539 74.705a2 2 0 1 1 2.696 2.955 6.949 6.949 0 0 1-.296.251 15.145 15.145 0 0 1-8.04 3.285c-3.705.369-7.496-.673-11.192-3.406a2 2 0 1 1 2.378-3.216c2.898 2.143 5.7 2.912 8.417 2.642a11.294 11.294 0 0 0 3.9-1.142c.838-.415 1.521-.867 2.019-1.27a3.85 3.85 0 0 0 .118-.1z" fill="#E3879A" fill-rule="nonzero"/></g></svg><svg x="0" y="4455" width="135" height="135" viewBox="0 0 135 135" version="1.1" xmlns="http://www.w3.org/2000/svg" xmlns:xlink="http://www.w3.org/1999/xlink"><title>Shoe2</title><g stroke="none" fill="none" fill-rule="evenodd"><path d="M104.481 63.237l-3.342 35.646a4.89 4.89 0 0 1-4.865 4.438 4.89 4.89 0 0 1-4.865-4.438l-1.923-20.51L69.378 98.67a13.76 13.76 0 0 1-6.145 3.59 13.58 13.58 0 0 1-5.278 1.06H35.721c-7.533 0-13.639-6.118-13.639-13.665 0-7.548 6.106-13.666 13.64-13.666 1.309 0 2.29.983 2.29 2.195v1.093c0 1.212.98 2.195 2.19 2.195h9.618a8.645 8.645 0 0 0 6.552-3.008L97.264 30.96a2.187 2.187 0 0 1 3.178-.148l.188.185 8.263 8.28c5.362 5.372 5.378 14.078.036 19.471l-4.448 4.49z" fill="#5E5E5E" fill-rule="nonzero"/><path d="M100.728 39.911l.007.006a3.276 3.276 0 0 1 .404 4.616l-8.542 10.18a3.276 3.276 0 0 1-4.616.404l-.007-.006a3.276 3.276 0 0 1-.404-4.616l8.543-10.18a3.276 3.276 0 0 1 4.615-.404zM37.332 86.286v.01a3.276 3.276 0 0 1-3.276 3.275h-2.167a3.276 3.276 0 0 1-3.277-3.276v-.009a3.276 3.276 0 0 1 3.277-3.276h2.167a3.276 3.276 0 0 1 3.276 3.276z" fill="#6C6C6C"/></g></svg><svg x="0" y="4590" width="135" height="135" viewBox="0 0 135 135" version="1.1" xmlns="http://www.w3.org/2000/svg" xmlns:xlink="http://www.w3.org/1999/xlink"><title>Man2</title><g stroke="none" fill="none" fill-rule="evenodd"><path d="M34.894 27.644h66.212c6.614 0 11.976 5.362 11.976 11.976 0 6.614-5.362 11.976-11.976 11.976H34.894c-6.614 0-11.976-5.362-11.976-11.976 0-6.614 5.362-11.976 11.976-11.976z" fill="#7F4B2E"/><ellipse fill="#F5A88D" cx="104.115" cy="61.448" rx="10.32" ry="10.03"/><ellipse fill="#F5A88D" cx="31.521" cy="61.448" rx="10.32" ry="10.03"/><path d="M67.818 20.988c19.85 0 35.941 16.092 35.941 35.941v30.333c0 9.239-7.489 16.727-16.727 16.727H48.604c-9.238 0-16.727-7.488-16.727-16.727V56.93c0-19.85 16.092-35.94 35.941-35.94z" fill="#F5A88D"/><path d="M58.823 47a3.823 3.823 0 0 1 3.822 3.823v6.321a3.823 3.823 0 0 1-7.645 0v-6.321A3.823 3.823 0 0 1 58.823 47zM76.823 47a3.823 3.823 0 0 1 3.822 3.823v6.321a3.823 3.823 0 0 1-7.645 0v-6.321A3.823 3.823 0 0 1 76.823 47z" fill="#BA725A"/><path d="M62.246 64.56H73.39c7.732 0 14 6.269 14 14v29.185c0 3.455-2.8 6.255-6.254 6.255H54.5a6.255 6.255 0 0 1-6.255-6.255V78.561c0-7.732 6.268-14 14-14z" fill="#7F4B2E"/><path d="M54.534 40.27a4.8 4.8 0 0 1-5.533-7.845c3.91-2.759 8.437-3.474 13.152-2.126a4.8 4.8 0 1 1-2.64 9.23c-1.957-.56-3.475-.32-4.979.74zM87.314 37.247a4.8 4.8 0 1 1-5.533 7.845c-1.504-1.06-3.022-1.3-4.98-.74a4.8 4.8 0 1 1-2.64-9.23c4.716-1.349 9.242-.633 13.153 2.125z" fill="#7F4B2E" fill-rule="nonzero"/><path d="M60.04 79.432a1.68 1.68 0 0 1 1.92-2.757c1.51 1.051 3.443 1.645 5.502 1.645 2.089 0 4.047-.611 5.565-1.69a1.68 1.68 0 1 1 1.946 2.74c-2.093 1.486-4.732 2.31-7.511 2.31-2.739 0-5.343-.8-7.422-2.248z" fill="#55311D" fill-rule="nonzero"/></g></svg><svg x="0" y="4725" width="135" height="135" viewBox="0 0 135 135" version="1.1" xmlns="http://www.w3.org/2000/svg" xmlns:xlink="http://www.w3.org/1999/xlink"><title>Plane1</title><g stroke="none" fill="none" fill-rule="evenodd"><path d="M49 84a3 3 0 0 1 3 3v7a3 3 0 0 1-6 0v-7a3 3 0 0 1 3-3zM56 84a3 3 0 0 1 3 3v7a3 3 0 0 1-6 0v-7a3 3 0 0 1 3-3zM80 84a3 3 0 0 1 3 3v7a3 3 0 0 1-6 0v-7a3 3 0 0 1 3-3zM87 84a3 3 0 0 1 3 3v7a3 3 0 0 1-6 0v-7a3 3 0 0 1 3-3z" fill="#186CBA"/><path d="M71.258 49.618c6.881 1.329 12.518 6.303 14.958 12.907l33.598-3.513a1.98 1.98 0 0 1 2.186 1.97 3.084 3.084 0 0 1-2.077 2.914L86.808 75.332c-2.32 8.72-10.056 15.126-19.24 15.126-9.214 0-16.97-6.448-19.263-15.21l-32.232-11.34A3.103 3.103 0 0 1 14 60.981a1.976 1.976 0 0 1 2.186-1.965l32.741 3.488c2.548-6.872 8.558-11.975 15.828-13.034l1.436-16.81a1.815 1.815 0 0 1 3.618 0l1.449 16.958z" fill="#FFF"/><circle stroke="#FFF" stroke-width="4.245" fill="#186CBA" cx="30.5" cy="78.5" r="10.5"/><circle stroke="#FFF" stroke-width="4.245" fill="#186CBA" cx="105.5" cy="78.5" r="10.5"/><circle fill="#2F90EA" cx="30.5" cy="78.5" r="3.5"/><circle fill="#2F90EA" cx="105.5" cy="78.5" r="3.5"/><circle fill="#D8D8D8" cx="68" cy="74" r="6"/><path d="M62.269 58H73.73c.919 0 1.772.475 2.256 1.256l.77 1.244a1.638 1.638 0 0 1-1.392 2.5h-14.73a1.638 1.638 0 0 1-1.392-2.5l.77-1.244A2.653 2.653 0 0 1 62.269 58z" fill="#1CB0F6"/></g></svg><svg x="0" y="4860" width="135" height="135" viewBox="0 0 135 135" version="1.1" xmlns="http://www.w3.org/2000/svg" xmlns:xlink="http://www.w3.org/1999/xlink"><title>Skull2</title><g stroke="none" fill="none" fill-rule="evenodd"><path d="M83 83v3.864A3.136 3.136 0 0 1 79.864 90h-6.728A3.136 3.136 0 0 1 70 86.864V83h-5v6.864A3.136 3.136 0 0 1 61.864 93h-6.728A3.136 3.136 0 0 1 52 89.864V83H37.5a9.5 9.5 0 0 1-9.5-9.5c0-4.381 2.966-8.07 7-9.168V50.878C35 33.272 49.272 19 66.878 19h1.244C85.728 19 100 33.272 100 50.878v13.454c4.034 1.098 7 4.787 7 9.168a9.5 9.5 0 0 1-9.5 9.5H83z" fill="#FFF"/><path d="M66 107.015h3v-3.879A3.136 3.136 0 0 1 72.136 100h6.728A3.136 3.136 0 0 1 82 103.136v3.466c4.106-1.167 7.015-4.657 7.015-8.602v-7a3.985 3.985 0 0 1 7.97 0v7c0 9.356-8.065 16.985-17.985 16.985H56c-9.92 0-17.985-7.63-17.985-16.985v-7a3.985 3.985 0 0 1 7.97 0v7c0 3.945 2.91 7.435 7.015 8.602v-3.466A3.136 3.136 0 0 1 56.136 100h6.728A3.136 3.136 0 0 1 66 103.136v3.88z" fill="#FFF" fill-rule="nonzero"/><path d="M55.5 55a3.5 3.5 0 0 1 3.5 3.5v10a3.5 3.5 0 0 1-7 0v-10a3.5 3.5 0 0 1 3.5-3.5zM80.5 55a3.5 3.5 0 0 1 3.5 3.5v10a3.5 3.5 0 0 1-7 0v-10a3.5 3.5 0 0 1 3.5-3.5zM69.512 65.536l3.789 11.366A1.594 1.594 0 0 1 71.789 79H64.21a1.594 1.594 0 0 1-1.512-2.098l3.789-11.366a1.594 1.594 0 0 1 3.024 0z" fill="#7AC70C"/></g></svg><svg x="0" y="4995" width="135" height="135" viewBox="0 0 135 135" version="1.1" xmlns="http://www.w3.org/2000/svg" xmlns:xlink="http://www.w3.org/1999/xlink"><title>Bandage2</title><g stroke="none" fill="none" fill-rule="evenodd"><path d="M93.562 28.094l12.988 12.988a8.316 8.316 0 0 1 0 11.76l-53.294 53.293a8.316 8.316 0 0 1-11.76 0L28.508 93.147a8.316 8.316 0 0 1 0-11.76L81.8 28.094a8.316 8.316 0 0 1 11.76 0z" fill="#F3B96C"/><path d="M107.46 94.765l-12.988 12.988a8.316 8.316 0 0 1-11.76 0L27.296 52.34a8.316 8.316 0 0 1 0-11.761L40.285 27.59a8.316 8.316 0 0 1 11.76 0l55.415 55.414a8.316 8.316 0 0 1 0 11.761z" fill="#F3B96C"/><path d="M73.039 50.867l10.726 10.726a8.316 8.316 0 0 1 0 11.76L73.039 84.08a8.316 8.316 0 0 1-11.76 0L50.551 73.354a8.316 8.316 0 0 1 0-11.76l10.726-10.727a8.316 8.316 0 0 1 11.76 0z" fill="#FFD193"/><circle fill="#D99F53" transform="rotate(45 99.288 45.962)" cx="99.288" cy="45.962" r="4"/><circle fill="#D99F53" transform="rotate(45 87.974 34.648)" cx="87.974" cy="34.648" r="4"/><circle fill="#D99F53" transform="rotate(45 85.853 48.083)" cx="85.853" cy="48.083" r="4"/><circle fill="#D99F53" transform="rotate(-46 46.061 35.32)" cx="46.061" cy="35.32" r="4"/><circle fill="#D99F53" transform="rotate(-46 34.947 46.829)" cx="34.947" cy="46.829" r="4"/><circle fill="#D99F53" transform="rotate(-46 48.417 48.716)" cx="48.417" cy="48.716" r="4"/><circle fill="#D99F53" transform="scale(-1 1) rotate(-46 0 322.574)" cx="99.324" cy="88.582" r="4"/><circle fill="#D99F53" transform="scale(-1 1) rotate(-46 0 306.574)" cx="87.814" cy="99.696" r="4"/><circle fill="#D99F53" transform="scale(-1 1) rotate(-46 0 288.66)" cx="85.928" cy="86.226" r="4"/><circle fill="#D99F53" transform="scale(1 -1) rotate(-45 -192.076 0)" cx="46.935" cy="99.002" r="4"/><circle fill="#D99F53" transform="scale(1 -1) rotate(-45 -176.076 0)" cx="35.622" cy="87.688" r="4"/><circle fill="#D99F53" transform="scale(1 -1) rotate(-45 -157.52 0)" cx="49.057" cy="85.567" r="4"/></g></svg><svg x="0" y="5130" width="135" height="135" viewBox="0 0 135 135" version="1.1" xmlns="http://www.w3.org/2000/svg" xmlns:xlink="http://www.w3.org/1999/xlink"><title>Camera2</title><g stroke="none" fill="none" fill-rule="evenodd"><path d="M59.418 33h44.164A6.418 6.418 0 0 1 110 39.418v45.164A6.418 6.418 0 0 1 103.582 91H59.418A6.418 6.418 0 0 1 53 84.582V39.418A6.418 6.418 0 0 1 59.418 33z" fill="#D8D8D8"/><path d="M30.418 42h52.164A6.418 6.418 0 0 1 89 48.418v38.164A6.418 6.418 0 0 1 82.582 93H30.418A6.418 6.418 0 0 1 24 86.582V48.418A6.418 6.418 0 0 1 30.418 42z" fill="#D8D8D8"/><path d="M24 58.967h86v33.615A6.418 6.418 0 0 1 103.582 99H30.418A6.418 6.418 0 0 1 24 92.582V58.967z" fill="#235268"/><ellipse fill="#E8E6E6" cx="66.81" cy="71.951" rx="22.861" ry="22.721"/><ellipse fill="#2E8EE5" cx="66.805" cy="71.908" rx="15.638" ry="15.543"/><path d="M95.279 38h5.442A4.279 4.279 0 0 1 105 42.279v5.442A4.279 4.279 0 0 1 100.721 52H95.28A4.279 4.279 0 0 1 91 47.721V42.28A4.279 4.279 0 0 1 95.279 38z" fill="#2E8EE5"/><path d="M63.209 38h8.582A3.209 3.209 0 0 1 75 41.209v1.582A3.209 3.209 0 0 1 71.791 46H63.21A3.209 3.209 0 0 1 60 42.791V41.21A3.209 3.209 0 0 1 63.209 38z" fill="#FFF"/></g></svg><svg x="0" y="5265" width="135" height="135" viewBox="0 0 135 135" version="1.1" xmlns="http://www.w3.org/2000/svg" xmlns:xlink="http://www.w3.org/1999/xlink"><title>Hammer2</title><g stroke="none" fill="none" fill-rule="evenodd"><path d="M63.436 37.658h9.27a3.538 3.538 0 0 1 3.538 3.538v70.266A3.538 3.538 0 0 1 72.706 115h-9.27a3.538 3.538 0 0 1-3.538-3.538V41.196a3.538 3.538 0 0 1 3.538-3.538z" fill="#A16518"/><path d="M62.267 35.278h11.636a3.538 3.538 0 0 1 3.538 3.539v13.14a2.359 2.359 0 0 1-2.359 2.36H61.088a2.359 2.359 0 0 1-2.36-2.36v-13.14a3.538 3.538 0 0 1 3.539-3.539z" fill="#EAE7E7"/><path fill="#D4CDCD" d="M58.729 29.33H77.44v19.037H58.729z"/><path d="M56.533 25.76h26.716a4.717 4.717 0 0 1 4.717 4.717V37.7a4.717 4.717 0 0 1-4.717 4.718H52.92a4.717 4.717 0 0 1-4.718-4.718V34.09c0-4.6 3.73-8.33 8.33-8.33z" fill="#EAE7E7"/><path d="M53.302 25.76H75.9a4.717 4.717 0 0 1 1.839 9.061c-11.966 5.065-20.355 7.597-25.168 7.597-3.87 0-7.56 2.352-11.074 7.057A4.717 4.717 0 0 1 33 46.652v-.59c0-11.213 9.09-20.303 20.302-20.303zM88.006 21h9.277A4.717 4.717 0 0 1 102 25.717V42.46a4.717 4.717 0 0 1-4.717 4.717h-9.277a4.717 4.717 0 0 1-4.718-4.717V25.717A4.717 4.717 0 0 1 88.006 21z" fill="#EAE7E7"/></g></svg><svg x="0" y="5400" width="135" height="135" viewBox="0 0 135 135" version="1.1" xmlns="http://www.w3.org/2000/svg" xmlns:xlink="http://www.w3.org/1999/xlink"><title>Box2</title><g stroke="none" fill="none" fill-rule="evenodd"><rect fill="#FAAD62" transform="rotate(19 68.098 68.932)" x="28.831" y="34.932" width="78.535" height="68" rx="5.412"/><path d="M79.208 36.798l31.97 11.008a5.412 5.412 0 0 1 3.355 6.88l-18.614 54.06a5.412 5.412 0 0 1-6.88 3.356l-31.97-11.008 22.14-64.296z" fill="#E79B51"/><rect fill="#FCD098" transform="rotate(19 40.152 89.095)" x="33.578" y="83.051" width="13.146" height="12.088" rx="1.191"/><path d="M55.532 29l10.103 3.48c.622.214.953.891.738 1.513l-3.15 9.152a1.19 1.19 0 0 1-1.514.738l-10.103-3.479a1.19 1.19 0 0 1-.738-1.513l3.15-9.152a1.19 1.19 0 0 1 1.514-.738z" fill="#FCD098"/><path d="M92.485 79.546l-1.687 4.635a2.165 2.165 0 0 1-2.775 1.294l-8.285-3.015a2.165 2.165 0 0 1-1.294-2.775l1.688-4.636-2.2-.8a2.165 2.165 0 0 1-.338-3.912l11.418-6.553a2.165 2.165 0 0 1 3.11 1.132l4.535 12.359a2.165 2.165 0 0 1-2.773 2.78l-1.399-.51z" fill="#C62929"/></g></svg><svg x="0" y="5535" width="135" height="135" viewBox="0 0 135 135" version="1.1" xmlns="http://www.w3.org/2000/svg" xmlns:xlink="http://www.w3.org/1999/xlink"><title>Egg2</title><g stroke="none" fill="none" fill-rule="evenodd"><path d="M66.776 108c19.207 0 34.776-16.009 34.776-35.756C101.552 52.496 85.982 23 66.776 23 47.57 23 32 52.496 32 72.244 32 91.99 47.57 108 66.776 108z" fill="#FFF"/><path d="M95.242 92.79c-5.345 7.814-13.657 13.328-23.253 14.811a14.655 14.655 0 0 1-.886-5.037c0-7.915 6.243-14.331 13.943-14.331 4.025 0 7.651 1.752 10.196 4.556zM35.18 54.86c2.966-8.704 7.839-17.275 13.893-23.331a14.509 14.509 0 0 1 3.44 9.426c0 7.915-6.242 14.332-13.942 14.332-1.17 0-2.306-.148-3.391-.427zM81.547 28.874c8.256 6.711 14.738 18.219 17.897 29.427-3.044 2.836-7.082 4.563-11.514 4.563-9.47 0-17.147-7.891-17.147-17.626 0-7.415 4.455-13.76 10.764-16.364z" fill="#B9E775"/><ellipse fill="#B9E775" cx="53.795" cy="80.655" rx="12.18" ry="12.519"/></g></svg><svg x="0" y="5670" width="135" height="135" viewBox="0 0 135 135" version="1.1" xmlns="http://www.w3.org/2000/svg" xmlns:xlink="http://www.w3.org/1999/xlink"><title>Hand2</title><g stroke="none" fill="none" fill-rule="evenodd"><path d="M80.685 57.837l3.016.98 8.427-15.77a7.87 7.87 0 0 1 10.994-3.036l.105.063a8.153 8.153 0 0 1 2.79 11.188L94.043 71.187 88.08 89.542a16.234 16.234 0 0 1-4.258 6.77v9.113a5.63 5.63 0 0 1-5.63 5.63H55.485a5.63 5.63 0 0 1-5.63-5.63v-11.49a16.214 16.214 0 0 1-4.743-4.036L28.077 73.435a8.94 8.94 0 0 1 .231-13.072l.145-.13.105-.093a9.247 9.247 0 0 1 13.047.881l3.775 4.323 2.421-7.451 2.174-24.84a8.153 8.153 0 0 1 8.833-7.412l.121.011a7.87 7.87 0 0 1 7.11 8.919l-2.452 17.71 3.051.992 8.145-25.069a8.153 8.153 0 0 1 10.274-5.234l.086.027A7.844 7.844 0 0 1 90.05 33.25l-9.364 24.588z" fill="#A56644"/><path d="M50.324 71.556a2.407 2.407 0 1 1 2.166-4.298c9.308 4.689 13.82 12.168 13.248 22.062a2.407 2.407 0 1 1-4.805-.278c.459-7.94-2.982-13.644-10.609-17.486z" fill="#925C3F" fill-rule="nonzero"/></g></svg><svg x="0" y="5805" width="135" height="135" viewBox="0 0 135 135" version="1.1" xmlns="http://www.w3.org/2000/svg" xmlns:xlink="http://www.w3.org/1999/xlink"><title>Flower2</title><g stroke="none" fill="none" fill-rule="evenodd"><path d="M69.54 84.67c2.482-4.3-5.149-22.848-17.333-30.008-12.185-7.16-32.555-3.643-34.655-.006-2.1 3.636 5.148 24.064 17.333 30.008 12.185 5.943 32.172 4.306 34.654.006z" fill="#58E200"/><path d="M41.93 51.211h38.469c5.367 0 9.718 4.351 9.718 9.719 0 5.367-4.351 9.718-9.718 9.718h-38.47c-5.367 0-9.718-4.351-9.718-9.718 0-5.368 4.351-9.719 9.719-9.719z" fill="#FFF"/><path d="M76.673 51.211H97.77c5.368 0 9.719 4.351 9.719 9.719 0 5.367-4.351 9.718-9.719 9.718H76.673c-5.367 0-9.718-4.351-9.718-9.718 0-5.368 4.35-9.719 9.718-9.719z" fill="#FFF"/><path d="M67.988 51.721l14.918-14.918c3.796-3.795 9.949-3.795 13.744 0s3.795 9.948 0 13.744L81.732 65.465c-3.795 3.795-9.948 3.795-13.744 0-3.795-3.795-3.795-9.949 0-13.744z" fill="#FFF"/><path d="M69.628 51.721c3.795 3.795 3.795 9.949 0 13.744-3.796 3.795-9.949 3.795-13.744 0L40.966 50.547c-3.796-3.796-3.796-9.949 0-13.744 3.795-3.795 9.948-3.795 13.743 0L69.628 51.72z" fill="#FFF"/><path d="M78.603 60.768c0 5.367-4.35 9.718-9.718 9.718-5.367 0-9.718-4.35-9.718-9.718V33.88c0-5.367 4.35-9.718 9.718-9.718 5.367 0 9.718 4.35 9.718 9.718v26.888z" fill="#FFF"/><path d="M82.49 66.626c0 7.514-6.091 13.605-13.605 13.605S55.279 74.14 55.279 66.626V55.233c0-7.514 6.092-13.605 13.606-13.605S82.49 47.719 82.49 55.233v11.393z" fill="#FFF"/><path d="M68.24 64.815c7.106 0 12.867.678 12.867-6.478S75.347 45.38 68.24 45.38c-7.106 0-12.866 5.801-12.866 12.957 0 7.156 5.76 6.478 12.866 6.478z" fill="#FFD300"/><path d="M59.994 100.22c-2.482-4.3 5.148-22.848 17.333-30.009 12.184-7.16 32.555-3.643 34.654-.006 2.1 3.636-5.148 24.065-17.333 30.008-12.185 5.944-32.172 4.306-34.654.007z" fill="#58E200"/></g></svg><svg x="0" y="5940" width="135" height="135" viewBox="0 0 135 135" version="1.1" xmlns="http://www.w3.org/2000/svg" xmlns:xlink="http://www.w3.org/1999/xlink"><title>Pong2</title><g stroke="none" fill="none" fill-rule="evenodd"><path fill="#976334" d="M49.605 80.682l15.22 8.437-11.733 4.266z"/><path d="M61.09 77.479l3.435 1.904a3.77 3.77 0 0 1 1.525 5.022l-14.942 29.048a3.77 3.77 0 0 1-5.18 1.573l-5.21-2.887a3.77 3.77 0 0 1-1.411-5.227l16.716-28.065a3.77 3.77 0 0 1 5.068-1.368z" fill="#CB852C"/><path d="M90.209 28.999c15.38 8.525 20.936 27.903 12.41 43.283l-2.617 4.723c-8.525 15.38-27.904 20.936-43.283 12.41-15.38-8.524-20.937-27.903-12.412-43.283l2.618-4.722C55.45 26.03 74.83 20.474 90.21 28.999z" fill="#BFE700"/><ellipse fill="#FFF" transform="rotate(29 47.138 43.48)" cx="47.138" cy="43.48" rx="17.298" ry="17.4"/><path fill="#CB852C" d="M45.282 78.499l15.22 8.437-11.733 4.266z"/><path fill="#CB852C" d="M71.97 93.292l-12.621 3.774-6.027-9.707 3.222-2.617z"/></g></svg><svg x="0" y="6075" width="135" height="135" viewBox="0 0 135 135" version="1.1" xmlns="http://www.w3.org/2000/svg" xmlns:xlink="http://www.w3.org/1999/xlink"><title>chef2</title><g stroke="none" fill="none" fill-rule="evenodd"><rect fill="#FFF" x="38.038" y="49.462" width="57.692" height="53.538" rx="4"/><path d="M67.537 49.462h24.194a4 4 0 0 1 4 4v20.16l-56.449 15.04c-.414.11-.829.203-1.244.277V57.321l29.5-7.86z" fill="#7AC70C" opacity=".318"/><rect fill="#FFF" transform="rotate(-15 65.766 54.26)" x="20.574" y="38.964" width="90.385" height="30.593" rx="15.297"/><rect fill="#FFF" transform="rotate(-15 61.99 39.335)" x="33.143" y="28.819" width="57.692" height="21.033" rx="10.516"/></g></svg><svg x="0" y="6210" width="135" height="135" viewBox="0 0 135 135" version="1.1" xmlns="http://www.w3.org/2000/svg" xmlns:xlink="http://www.w3.org/1999/xlink"><title>Pig2</title><g stroke="none" fill="none" fill-rule="evenodd"><path d="M17.958 45.481l41.739 4.584-22.808 17.92c-5.312 4.173-13.002 3.25-17.175-2.062a12.232 12.232 0 0 1-2.08-3.98l-3.588-11.738a3.672 3.672 0 0 1 3.912-4.724zM116.813 45.481l-41.739 4.584 22.808 17.92c5.312 4.173 13.002 3.25 17.176-2.062a12.232 12.232 0 0 0 2.079-3.98l3.588-11.738a3.672 3.672 0 0 0-3.912-4.724z" fill="#FFCBCB"/><path d="M61.339 29.014l23.599 13.081a1.641 1.641 0 0 1 .352 2.608c-4.865 4.767-12.42 5.795-18.551 2.396-6.132-3.399-9.263-10.35-7.798-17.002a1.641 1.641 0 0 1 2.398-1.083z" fill="#FFCBCB" fill-rule="nonzero"/><path d="M67 36c18.225 0 33 14.775 33 33v18.906C100 98.451 91.451 107 80.906 107H53.094C42.549 107 34 98.451 34 87.906V69c0-18.225 14.775-33 33-33z" fill="#FFCBCB"/><rect fill="#AF6F6F" x="41" y="63" width="8" height="14" rx="4"/><rect fill="#AF6F6F" x="86" y="63" width="8" height="14" rx="4"/><path d="M61.5 69h12C80.404 69 86 74.596 86 81.5v4.422A8.078 8.078 0 0 1 77.922 94H57.078A8.078 8.078 0 0 1 49 85.922V81.5C49 74.596 54.596 69 61.5 69z" fill="#F5A4A4"/><rect fill="#CE8484" x="57" y="76" width="8" height="12" rx="4"/><rect fill="#CE8484" x="70" y="76" width="8" height="12" rx="4"/></g></svg><svg x="0" y="6345" width="135" height="135" viewBox="0 0 135 135" version="1.1" xmlns="http://www.w3.org/2000/svg" xmlns:xlink="http://www.w3.org/1999/xlink"><title>Bubbles2</title><g stroke="none" fill="#FFF" fill-rule="evenodd"><path d="M49.033 71.781l-9.642 9.01a3.95 3.95 0 0 1-6.647-2.887v-6.456C27.159 70.138 23 65.126 23 59.141v-15.5C23 36.658 28.66 31 35.64 31h30.214c6.98 0 12.64 5.66 12.64 12.64v15.501c0 6.981-5.66 12.64-12.64 12.64h-16.82z" fill-opacity=".68"/><path d="M82.996 93.425h-21.18c-6.98 0-12.64-5.659-12.64-12.64V61.612c0-6.981 5.66-12.64 12.64-12.64H99.36c6.98 0 12.64 5.659 12.64 12.64v19.173c0 6.375-4.72 11.648-10.856 12.515v7.752a3.95 3.95 0 0 1-6.615 2.916L82.996 93.425z"/></g></svg><svg x="0" y="6480" width="135" height="135" viewBox="0 0 135 135" version="1.1" xmlns="http://www.w3.org/2000/svg" xmlns:xlink="http://www.w3.org/1999/xlink"><title>Woman2</title><g stroke="none" fill="none" fill-rule="evenodd"><path d="M67.68 28.28c17.745 0 32.13 14.385 32.13 32.13 0 .562-.015 1.124-.044 1.685l-.687 13.069c-.856 16.31-14.33 29.095-30.663 29.095-16.419 0-30.048-12.684-31.225-29.06l-.944-13.144c-1.248-17.36 11.814-32.446 29.175-33.693a31.515 31.515 0 0 1 2.259-.082z" fill="#363636"/><path d="M46 75.611h45.36c9.742 0 17.64 7.898 17.64 17.64v.109c0 9.742-7.898 17.64-17.64 17.64H46c-9.742 0-17.64-7.898-17.64-17.64v-.109c0-9.742 7.898-17.64 17.64-17.64z" fill="#363636"/><path d="M67.967 34.599c15.34 0 27.775 12.435 27.775 27.775 0 .88-.042 1.759-.125 2.635l-1.345 14.11C92.98 92.68 81.59 103.036 67.967 103.036S42.954 92.68 41.662 79.12l-1.345-14.11c-1.455-15.27 9.745-28.83 25.015-30.285a27.775 27.775 0 0 1 2.635-.125z" fill="#A56644"/><path d="M60.908 55.019h.024a3.348 3.348 0 0 1 3.348 3.347v5.101a3.348 3.348 0 0 1-3.348 3.348h-.024a3.348 3.348 0 0 1-3.348-3.348v-5.1a3.348 3.348 0 0 1 3.348-3.348zM74.068 55.019h.024a3.348 3.348 0 0 1 3.348 3.347v5.101a3.348 3.348 0 0 1-3.348 3.348h-.024a3.348 3.348 0 0 1-3.348-3.348v-5.1a3.348 3.348 0 0 1 3.348-3.348z" fill="#7B482D"/><path d="M60.337 75.692a1.68 1.68 0 1 1 2.175-2.56 8.137 8.137 0 0 0 5.29 1.943 8.139 8.139 0 0 0 5.354-1.997 1.68 1.68 0 1 1 2.2 2.539 11.498 11.498 0 0 1-7.554 2.818c-2.77 0-5.393-.983-7.465-2.743z" fill="#8A5235" fill-rule="nonzero"/><ellipse fill="#A56644" cx="40.548" cy="66.501" rx="10.031" ry="9.971"/><ellipse fill="#A56644" cx="94.025" cy="66.501" rx="10.031" ry="9.971"/><path d="M45.16 20h6.72c11.134 0 20.16 9.026 20.16 20.16v.124c0 11.135-9.026 20.16-20.16 20.16h-6.72C34.026 60.444 25 51.42 25 40.284v-.124C25 29.026 34.026 20 45.16 20z" fill="#363636"/></g></svg><svg x="0" y="6615" width="135" height="135" viewBox="0 0 135 135" version="1.1" xmlns="http://www.w3.org/2000/svg" xmlns:xlink="http://www.w3.org/1999/xlink"><title>Storm2</title><g stroke="none" fill="none" fill-rule="evenodd"><path d="M57.835 64.402L47.511 84.708a3.671 3.671 0 0 0 3.272 5.335h7.052l-10.379 18.75a3.671 3.671 0 0 0 5.492 4.656l29.623-23.474a3.671 3.671 0 0 0-2.28-6.549h-6.075L89.41 61.094l-31.574 3.308z" fill="#FFD300"/><path d="M64.037 75.128h-24.14a5.767 5.767 0 0 1-.086 0C30.526 75.128 23 67.348 23 57.753c0-9.597 7.526-17.376 16.81-17.376.838 0 1.662.064 2.467.186C45.587 29.799 55.336 22 66.847 22c11.525 0 21.284 7.819 24.582 18.604.886-.15 1.796-.227 2.723-.227 9.285 0 16.811 7.78 16.811 17.376s-7.526 17.375-16.81 17.375c-.119 0-.236-.001-.354-.004-.07.003-.139.004-.208.004H69.656a25.226 25.226 0 0 1-5.619 0z" fill="#D9D4D4"/></g></svg><svg x="0" y="6750" width="135" height="135" viewBox="0 0 135 135" version="1.1" xmlns="http://www.w3.org/2000/svg" xmlns:xlink="http://www.w3.org/1999/xlink"><title>Glasses2</title><g stroke="none" fill="none" fill-rule="evenodd"><path d="M13.287 49h9.726a2.287 2.287 0 0 1 2.287 2.287v7.554a2.287 2.287 0 0 1-2.287 2.287h-9.726A2.287 2.287 0 0 1 11 58.841v-7.554A2.287 2.287 0 0 1 13.287 49zM110.987 49h9.726A2.287 2.287 0 0 1 123 51.287v7.554a2.287 2.287 0 0 1-2.287 2.287h-9.726a2.287 2.287 0 0 1-2.287-2.287v-7.554A2.287 2.287 0 0 1 110.987 49z" fill="#424242"/><path d="M29.76 47.244h20.38c5.367 0 9.719 4.351 9.719 9.72v24.868c0 5.367-4.352 9.719-9.72 9.719H29.761c-5.368 0-9.72-4.352-9.72-9.72V56.964c0-5.368 4.352-9.72 9.72-9.72z" stroke="#424242" stroke-width="5.717" fill="#616161"/><path d="M56.903 55.807L25.5 87.21a6.848 6.848 0 0 1-2.6-5.378V56.963a6.86 6.86 0 0 1 6.86-6.86h20.38a6.863 6.863 0 0 1 6.763 5.704z" fill="#7D7D7D"/><path d="M83.66 48.347h20.38c5.367 0 9.719 4.351 9.719 9.719v24.868c0 5.368-4.352 9.72-9.72 9.72H83.661c-5.368 0-9.72-4.352-9.72-9.72V58.066c0-5.368 4.352-9.72 9.72-9.72z" stroke="#424242" stroke-width="5.717" fill="#616161"/><path d="M109.557 53.988a6.83 6.83 0 0 1 1.343 4.078v16.838l-14.89 14.89H83.66a6.86 6.86 0 0 1-6.13-3.778l32.027-32.028z" fill="#7D7D7D"/><path fill="#424242" d="M59.2 52.308h15.4v12.128H59.2z"/></g></svg><svg x="0" y="6885" width="135" height="135" viewBox="0 0 135 135" version="1.1" xmlns="http://www.w3.org/2000/svg" xmlns:xlink="http://www.w3.org/1999/xlink"><title>Bike2</title><g stroke="none" fill="none" fill-rule="evenodd"><ellipse stroke="#525252" stroke-width="6.365" stroke-linecap="round" stroke-linejoin="round" cx="96.528" cy="81.042" rx="18.472" ry="18.958"/><ellipse stroke="#525252" stroke-width="6.365" stroke-linecap="round" stroke-linejoin="round" cx="38.472" cy="81.042" rx="18.472" ry="18.958"/><path d="M81.222 45.833h15.315" stroke="#525252" stroke-width="6.365" stroke-linecap="round" stroke-linejoin="round"/><ellipse fill="#525252" cx="97.885" cy="43.899" rx="5.052" ry="5.185"/><path d="M38.472 81.042h21.646" stroke="#D8D8D8" stroke-width="6.365" stroke-linecap="round" stroke-linejoin="round"/><path d="M37.944 81.583l14.778-31.416-14.778 31.416zM97.056 81.583l-15.834-35.75M68.043 81.583L48.252 38.25M64.582 81.448l16.625-31.281-16.625 31.28z" stroke="#FFD881" stroke-width="6.365" stroke-linecap="round" stroke-linejoin="round"/><path d="M42.694 36.625H53.46" stroke="#525252" stroke-width="6.365" stroke-linecap="round" stroke-linejoin="round"/><ellipse fill="#D8D8D8" cx="66.444" cy="80.5" rx="7.886" ry="8.093"/><path d="M52.132 45.795h28.68" stroke="#FFD881" stroke-width="6.365" stroke-linecap="round" stroke-linejoin="round"/></g></svg><svg x="0" y="7020" width="135" height="135" viewBox="0 0 135 135" version="1.1" xmlns="http://www.w3.org/2000/svg" xmlns:xlink="http://www.w3.org/1999/xlink"><title>Weights2</title><g stroke="none" fill="none" fill-rule="evenodd"><path d="M17 64h100a4 4 0 1 1 0 8H17a4 4 0 1 1 0-8z" fill="#D8D8D8"/><path d="M38.36 44h10.28A3.36 3.36 0 0 1 52 47.36v40.28A3.36 3.36 0 0 1 48.64 91H38.36A3.36 3.36 0 0 1 35 87.64V47.36A3.36 3.36 0 0 1 38.36 44zM27.36 52h4.28A3.36 3.36 0 0 1 35 55.36v25.28A3.36 3.36 0 0 1 31.64 84h-4.28A3.36 3.36 0 0 1 24 80.64V55.36A3.36 3.36 0 0 1 27.36 52zM96.64 44a3.36 3.36 0 0 1 3.36 3.36v40.28A3.36 3.36 0 0 1 96.64 91H86.36A3.36 3.36 0 0 1 83 87.64V47.36A3.36 3.36 0 0 1 86.36 44h10.28z" fill="#4B4B4B"/><path d="M86.68 46h9.64c.928 0 1.68.752 1.68 1.68v3.64A1.68 1.68 0 0 1 96.32 53h-9.64A1.68 1.68 0 0 1 85 51.32v-3.64c0-.928.752-1.68 1.68-1.68zM38.68 46h9.64c.928 0 1.68.752 1.68 1.68v3.64A1.68 1.68 0 0 1 48.32 53h-9.64A1.68 1.68 0 0 1 37 51.32v-3.64c0-.928.752-1.68 1.68-1.68zM27.68 54h3.64c.928 0 1.68.752 1.68 1.68v3.64A1.68 1.68 0 0 1 31.32 61h-3.64A1.68 1.68 0 0 1 26 59.32v-3.64c0-.928.752-1.68 1.68-1.68z" fill="#747474"/><path d="M107.64 52a3.36 3.36 0 0 1 3.36 3.36v25.28a3.36 3.36 0 0 1-3.36 3.36h-4.28a3.36 3.36 0 0 1-3.36-3.36V55.36a3.36 3.36 0 0 1 3.36-3.36h4.28z" fill="#4B4B4B"/><path d="M107.32 54c.928 0 1.68.752 1.68 1.68v3.64a1.68 1.68 0 0 1-1.68 1.68h-3.64a1.68 1.68 0 0 1-1.68-1.68v-3.64c0-.928.752-1.68 1.68-1.68h3.64z" fill="#747474"/></g></svg><svg x="0" y="7155" width="135" height="135" viewBox="0 0 135 135" version="1.1" xmlns="http://www.w3.org/2000/svg" xmlns:xlink="http://www.w3.org/1999/xlink"><title>Bubbles2</title><g stroke="none" fill="#FFF" fill-rule="evenodd"><path d="M49.033 71.781l-9.642 9.01a3.95 3.95 0 0 1-6.647-2.887v-6.456C27.159 70.138 23 65.126 23 59.141v-15.5C23 36.658 28.66 31 35.64 31h30.214c6.98 0 12.64 5.66 12.64 12.64v15.501c0 6.981-5.66 12.64-12.64 12.64h-16.82z" fill-opacity=".68"/><path d="M82.996 93.425h-21.18c-6.98 0-12.64-5.659-12.64-12.64V61.612c0-6.981 5.66-12.64 12.64-12.64H99.36c6.98 0 12.64 5.659 12.64 12.64v19.173c0 6.375-4.72 11.648-10.856 12.515v7.752a3.95 3.95 0 0 1-6.615 2.916L82.996 93.425z"/></g></svg><svg x="0" y="7290" width="135" height="135" viewBox="0 0 135 135" version="1.1" xmlns="http://www.w3.org/2000/svg" xmlns:xlink="http://www.w3.org/1999/xlink"><title>Ring2</title><g stroke="none" fill="none" fill-rule="evenodd"><ellipse stroke="#FFD300" stroke-width="7.854" cx="67.094" cy="81.045" rx="30.787" ry="31.364"/><path d="M54.494 41.405a3.882 3.882 0 0 1 5.407.953l5.754 8.217a3.882 3.882 0 1 1-6.36 4.453l-5.754-8.217a3.882 3.882 0 0 1 .953-5.406zM80.229 41.405a3.882 3.882 0 0 1 .953 5.406l-5.754 8.217a3.882 3.882 0 1 1-6.36-4.453l5.754-8.217a3.882 3.882 0 0 1 5.407-.953z" fill="#FFD300"/><path d="M70.552 50.075a3.927 3.927 0 0 1-6.716 0L50.43 27.963A3.927 3.927 0 0 1 53.788 22h26.813a3.927 3.927 0 0 1 3.358 5.963L70.552 50.075z" fill="#C6EBFC"/><path d="M57.275 25.213h10.16a1.964 1.964 0 0 1 1.96 2.104l-1.1 15.346a1.964 1.964 0 0 1-3.648.858l-9.062-15.346a1.964 1.964 0 0 1 1.69-2.962zM93.022 38.18l3.735-3.735a3.57 3.57 0 0 1 5.048 0l3.78 3.779a3.57 3.57 0 0 1 0 5.048l-3.736 3.735a3.57 3.57 0 0 1-5.048 0l-3.779-3.779a3.57 3.57 0 0 1 0-5.048z" fill="#FFF"/><path d="M24.556 56.02l1.225-1.225a3.57 3.57 0 0 1 5.05 0l1.256 1.256a3.57 3.57 0 0 1 0 5.05l-1.225 1.224a3.57 3.57 0 0 1-5.05 0l-1.256-1.256a3.57 3.57 0 0 1 0-5.049z" fill="#FFF" opacity=".864"/><path d="M53.982 88.115l3.735-3.734a3.57 3.57 0 0 1 5.049 0l3.778 3.778a3.57 3.57 0 0 1 0 5.05l-3.734 3.734a3.57 3.57 0 0 1-5.05 0l-3.778-3.779a3.57 3.57 0 0 1 0-5.049z" fill="#FFF" opacity=".579"/></g></svg><svg x="0" y="7425" width="135" height="135" viewBox="0 0 135 135" version="1.1" xmlns="http://www.w3.org/2000/svg"><title>Cookie2</title><g stroke="none" fill="none" fill-rule="evenodd"><path d="M105.933 72.85c-.26 11.96-2.66 19.797-9.119 25.673-6.692 6.089-19.17 10.177-29.828 10.177-10.358 0-15.301-3.098-24.212-13.154-.318-.358-3.645-4.045-4.674-5.226-6.725-7.706-10.089-13.614-10.089-20.097 0-11.079 4.452-18.502 14.476-26.51 5.022-4.01 7.635-5.933 11.007-7.862 4.66-2.667 9.079-4.104 13.492-4.104 1.64 0 3.268.1 4.877.298l3.45.426-2.454 2.462c-2.983 2.992-4.682 7.002-4.682 11.279 0 8.884 7.309 16.095 16.336 16.095 2.52 0 4.955-.561 7.166-1.627l1.642-.791.675 1.693c1.851 4.645 5.821 8.216 10.7 9.594l1.266.358-.029 1.315z" stroke="#FFBE80" stroke-width="3.4" fill="#FFBE80" stroke-linecap="round" stroke-linejoin="round"/><ellipse fill="#FAAD62" cx="87.565" cy="29.745" rx="4.81" ry="4.745"/><ellipse fill="#FAAD62" cx="93.878" cy="45.665" rx="5.989" ry="5.909"/><path d="M67.248 86.007l4.484 2.589a3.4 3.4 0 0 1 1.244 4.644l-2.58 4.467a3.4 3.4 0 0 1-4.644 1.245l-4.484-2.59a3.4 3.4 0 0 1-1.244-4.644l2.58-4.467a3.4 3.4 0 0 1 4.644-1.244z" fill="#8E4A25"/><rect fill="#8E4A25" transform="scale(-1 1) rotate(30 0 -236.03)" x="78.416" y="75.335" width="13.689" height="13.667" rx="5.1"/><rect fill="#8E4A25" transform="rotate(30 51.956 62.583)" x="43.629" y="54.271" width="16.653" height="16.626" rx="5.1"/><path d="M60.187 30.962l.746.43a5.1 5.1 0 0 1 1.866 6.967l-.421.73a5.1 5.1 0 0 1-6.967 1.867l-.745-.43a5.1 5.1 0 0 1-1.867-6.967l.421-.73a5.1 5.1 0 0 1 6.967-1.867zM37.943 82.212l.745.43a5.1 5.1 0 0 1 1.867 6.967l-.422.73a5.1 5.1 0 0 1-6.966 1.867l-.746-.43a5.1 5.1 0 0 1-1.867-6.967l.422-.73a5.1 5.1 0 0 1 6.967-1.867z" fill="#8E4A25"/></g></svg></svg>